<?xml version="1.0" standalone="no"?>
<!DOCTYPE svg PUBLIC "-//W3C//DTD SVG 20010904//EN"
 "http://www.w3.org/TR/2001/REC-SVG-20010904/DTD/svg10.dtd">
<svg version="1.0" xmlns="http://www.w3.org/2000/svg"
 width="964.000000pt" height="964.000000pt" viewBox="0 0 964.000000 964.000000"
 preserveAspectRatio="xMidYMid meet">
<metadata>
Created by potrace 1.14, written by Peter Selinger 2001-2017
</metadata>
<g transform="translate(0.000000,964.000000) scale(0.100000,-0.100000)"
fill="#000000" stroke="none">
<path d="M5316 9591 c-8 -13 -9 -12 27 -15 15 -2 27 1 27 7 0 5 -6 7 -14 4 -7
-3 -18 -1 -24 5 -6 6 -12 6 -16 -1z"/>
<path d="M5170 9580 c0 -5 5 -10 11 -10 5 0 7 5 4 10 -3 6 -8 10 -11 10 -2 0
-4 -4 -4 -10z"/>
<path d="M5203 9571 c-8 -13 -9 -21 -1 -29 9 -9 6 -10 -10 -7 -12 2 -24 -1
-28 -6 -4 -6 -11 -6 -20 2 -8 6 -14 8 -14 3 0 -5 -10 2 -21 16 -17 21 -19 22
-10 3 6 -12 11 -28 10 -35 0 -7 -5 -3 -11 9 l-11 23 -20 -23 c-15 -16 -19 -18
-14 -4 4 11 1 17 -9 17 -11 0 -14 -6 -10 -16 4 -10 2 -13 -7 -7 -20 12 -37 12
-37 0 0 -7 -5 -5 -10 3 -7 11 -10 11 -10 2 0 -7 -4 -11 -8 -8 -5 3 -9 -1 -9
-9 0 -12 3 -12 16 -3 9 7 13 8 9 4 -4 -5 -2 -16 5 -25 10 -14 10 -14 -5 -3
-10 8 -19 9 -22 3 -6 -9 -27 -8 -73 2 -17 5 -21 1 -18 -18 1 -13 -2 -29 -6
-37 -6 -9 -8 -7 -8 7 -1 39 -4 54 -12 50 -4 -3 -5 -14 -2 -25 3 -12 0 -20 -6
-20 -7 0 -9 5 -5 11 3 6 -5 3 -20 -6 -30 -20 -35 -31 -8 -16 13 7 19 6 19 -2
0 -15 -39 -18 -48 -4 -4 5 -16 0 -28 -12 -23 -23 -28 -36 -8 -25 6 4 8 3 4 -1
-10 -12 -39 -16 -32 -5 3 5 0 12 -6 16 -7 4 -9 3 -6 -3 10 -16 -31 -63 -48
-56 -11 4 -14 0 -9 -13 5 -18 5 -18 -6 -1 -6 9 -8 23 -4 30 4 6 -2 3 -13 -8
-11 -11 -18 -24 -15 -29 2 -4 8 -2 13 5 6 10 9 10 9 2 0 -20 -18 -24 -34 -7
-9 8 -16 12 -16 7 0 -5 5 -14 11 -20 8 -8 7 -13 -2 -18 -7 -5 -10 -4 -6 2 4 6
0 13 -7 16 -10 4 -13 0 -11 -14 3 -15 0 -19 -10 -15 -10 3 -15 -1 -15 -12 0
-15 -2 -15 -10 -2 -8 13 -10 13 -11 -2 -1 -10 -2 -24 -3 -30 -1 -7 -10 -12
-20 -10 -13 2 -16 -1 -10 -10 4 -7 -3 -4 -17 7 -16 14 -20 15 -11 3 10 -13 11
-21 3 -35 -8 -13 -11 -14 -9 -3 2 9 -1 16 -7 17 -5 1 -9 -10 -8 -25 1 -15 0
-21 -3 -14 -9 20 -26 14 -19 -7 3 -11 1 -22 -4 -26 -6 -3 -8 0 -5 8 3 8 0 18
-5 22 -6 3 -8 11 -5 17 4 7 2 8 -5 4 -9 -6 -9 -11 1 -24 11 -13 11 -15 -3 -10
-9 3 -22 2 -30 -3 -12 -7 -12 -9 0 -9 11 0 11 -3 0 -17 -11 -15 -10 -14 9 1
12 11 22 14 22 9 0 -6 -7 -14 -16 -17 -8 -3 -12 -11 -8 -17 5 -8 1 -8 -14 0
-26 14 -42 14 -22 1 12 -8 11 -11 -8 -16 -21 -6 -21 -7 -5 -21 10 -8 12 -12 6
-8 -7 3 -13 0 -13 -7 0 -10 -3 -9 -11 2 -9 12 -10 10 -6 -9 5 -21 3 -23 -26
-17 l-32 6 25 -15 c23 -13 23 -14 5 -16 -11 -1 -24 -1 -29 0 -5 1 -2 -9 7 -23
12 -18 14 -27 5 -32 -6 -4 -8 -3 -5 3 4 6 0 16 -7 22 -12 10 -14 8 -12 -13 2
-15 -4 -32 -15 -42 -10 -9 -16 -20 -14 -25 5 -8 -34 -25 -48 -21 -5 1 -6 -2
-3 -7 4 -5 -2 -14 -11 -20 -10 -6 -14 -11 -9 -11 5 0 17 7 27 16 14 12 18 13
25 2 4 -7 4 -10 -1 -6 -13 12 -34 -11 -28 -30 4 -14 3 -15 -6 -2 -15 22 -27 2
-12 -22 10 -16 10 -19 -1 -12 -21 13 -35 13 -35 -1 0 -7 7 -11 16 -8 12 3 11
2 -2 -7 -9 -6 -15 -16 -12 -21 4 -5 11 -6 17 -3 7 5 8 2 3 -6 -6 -10 -12 -8
-26 8 -9 12 -20 22 -24 22 -4 0 -2 -7 5 -15 6 -8 8 -20 4 -26 -4 -7 -3 -9 4
-5 11 7 11 -12 -1 -32 -6 -9 -13 -9 -29 -1 -15 8 -19 8 -13 0 4 -7 1 -19 -7
-28 -11 -14 -11 -16 1 -8 11 6 13 4 8 -9 -4 -10 -7 -24 -7 -32 0 -9 -4 -12
-10 -9 -6 3 -7 -1 -4 -10 5 -12 2 -16 -12 -13 -11 2 -18 -2 -17 -9 2 -7 -3
-13 -10 -13 -8 0 -7 -4 3 -10 8 -5 11 -10 6 -10 -5 0 -2 -8 5 -17 11 -13 11
-15 1 -9 -9 6 -12 1 -10 -16 2 -12 7 -28 11 -35 4 -6 3 -15 -3 -18 -6 -4 -9
-1 -8 6 2 6 -3 14 -10 16 -7 3 -12 1 -11 -4 4 -21 -2 -34 -13 -27 -7 5 -8 3
-3 -6 12 -19 15 -61 4 -54 -5 3 -6 11 -3 17 5 9 3 9 -6 0 -10 -10 -11 -15 -1
-27 9 -11 9 -16 0 -22 -8 -5 -9 -3 -4 6 5 9 4 11 -3 6 -15 -9 -16 -46 -2 -46
6 0 10 -4 10 -10 0 -5 -8 -7 -17 -3 -16 6 -15 3 2 -17 l20 -23 -22 12 c-19 9
-21 9 -18 -6 2 -10 6 -25 10 -34 3 -10 2 -20 -4 -24 -6 -3 -9 0 -5 8 7 19 -12
32 -22 16 -4 -8 -3 -9 4 -5 7 4 12 2 12 -3 0 -6 -5 -11 -11 -11 -6 0 -3 -7 6
-16 10 -10 12 -20 7 -28 -5 -6 -8 -21 -7 -33 1 -15 -3 -19 -13 -16 -12 5 -12
2 -2 -17 7 -12 7 -20 2 -16 -6 3 -13 2 -17 -4 -3 -5 1 -10 9 -10 24 0 27 -16
7 -36 -16 -17 -16 -20 -2 -32 9 -8 10 -11 4 -7 -7 3 -13 1 -13 -5 0 -6 -5 -8
-12 -4 -7 4 -8 3 -4 -4 4 -7 15 -12 24 -13 12 0 11 -3 -5 -9 -13 -5 -23 -12
-23 -14 0 -3 6 -3 13 0 8 3 14 -2 14 -10 0 -8 -5 -12 -10 -9 -5 3 -7 0 -5 -8
3 -8 1 -26 -3 -42 -5 -16 -4 -25 2 -22 15 10 10 -7 -8 -29 -10 -12 -11 -15 -3
-8 18 16 27 15 27 -3 0 -8 -4 -12 -9 -9 -4 3 -8 1 -8 -5 0 -5 6 -11 13 -14 6
-2 9 -8 5 -12 -4 -4 -16 -2 -25 6 -17 13 -17 12 -2 -6 9 -11 14 -26 11 -34 -3
-10 0 -11 9 -5 11 6 10 3 -1 -11 -9 -12 -10 -16 -2 -11 9 6 11 1 8 -18 -3 -14
-8 -31 -12 -38 -5 -8 0 -7 11 2 19 15 19 14 1 -14 -10 -16 -14 -26 -9 -23 5 3
14 -3 21 -13 7 -11 8 -21 2 -25 -5 -3 -12 0 -16 6 -5 8 -3 9 6 4 9 -6 11 -4 6
4 -9 14 -19 7 -22 -14 -1 -8 3 -13 8 -12 6 1 13 -4 16 -12 3 -9 0 -11 -8 -6
-8 5 -11 4 -6 -3 3 -5 0 -12 -6 -15 -7 -3 -3 -4 9 -4 12 1 19 5 17 9 -3 4 3 5
12 1 11 -4 13 -8 6 -11 -7 -2 -10 -7 -7 -12 3 -4 -5 -6 -17 -4 -21 4 -21 3 2
-7 24 -11 24 -11 5 -19 -17 -8 -18 -9 -2 -9 10 -1 20 6 23 14 4 8 11 15 17 15
7 0 7 -4 -1 -12 -15 -15 -16 -31 0 -22 7 4 8 3 4 -4 -4 -6 -13 -9 -21 -6 -16
6 -15 -11 3 -43 7 -13 9 -23 5 -23 -4 0 -1 -5 7 -10 13 -8 13 -10 0 -10 -10 0
-7 -5 8 -16 12 -8 20 -19 17 -24 -3 -5 -1 -11 4 -15 6 -3 7 -15 1 -29 -10 -27
4 -47 29 -39 10 3 12 2 5 -4 -6 -4 -13 -20 -16 -35 -4 -21 -2 -25 11 -20 14 5
14 4 1 -13 -14 -17 -13 -18 4 -11 19 7 19 6 2 -13 -13 -14 -14 -21 -5 -27 7
-4 10 -3 6 3 -4 6 -1 13 7 16 8 3 17 -1 20 -9 4 -10 1 -13 -7 -9 -6 4 -5 1 3
-7 20 -17 27 -93 8 -82 -7 4 -1 -8 13 -27 14 -18 25 -42 23 -52 -1 -11 2 -14
9 -10 21 13 36 11 30 -3 -3 -8 -10 -11 -15 -8 -7 4 -7 0 0 -12 5 -11 8 -25 6
-32 -1 -7 0 -8 3 -2 9 19 24 10 18 -10 -4 -11 -3 -20 2 -19 19 3 33 -2 33 -12
0 -6 -6 -9 -13 -6 -7 3 -13 -3 -13 -12 0 -10 6 -18 13 -18 7 0 10 4 7 9 -3 4
0 8 5 8 14 0 14 -17 1 -25 -5 -3 -10 -11 -10 -17 0 -6 7 -5 17 3 11 10 14 10
9 2 -4 -8 -2 -13 4 -13 6 0 9 -4 5 -9 -3 -5 0 -13 6 -17 7 -4 9 -3 5 4 -3 6
-1 14 5 18 7 4 9 3 5 -4 -3 -6 -2 -13 3 -17 5 -3 8 -13 6 -23 -3 -16 16 -42
32 -43 5 0 7 -6 5 -14 -1 -7 7 -17 19 -20 15 -5 18 -9 9 -15 -9 -5 -9 -9 -1
-14 6 -4 9 -11 6 -16 -3 -5 -1 -11 5 -15 5 -3 10 -1 10 6 0 7 3 9 6 6 4 -4 1
-14 -7 -24 -9 -11 -10 -14 -1 -9 7 4 12 2 12 -6 0 -9 3 -9 10 2 6 9 10 10 10
3 0 -6 -4 -14 -10 -18 -13 -8 -3 -28 23 -44 22 -14 22 -14 3 8 -11 11 -14 21
-9 21 6 0 14 -7 17 -16 3 -8 9 -13 13 -11 5 3 8 -5 8 -18 0 -16 -4 -20 -11
-14 -7 5 -11 4 -11 -5 0 -8 7 -13 16 -11 9 1 21 -4 28 -11 20 -19 15 -26 -9
-14 -22 11 -22 10 -4 -4 15 -12 23 -13 33 -4 7 6 16 8 20 4 3 -3 1 -6 -5 -6
-7 0 -12 -4 -12 -10 0 -5 8 -6 18 -3 15 6 16 5 2 -12 -8 -10 -10 -16 -4 -12 7
4 15 -1 18 -10 6 -15 8 -14 20 2 10 14 15 15 21 5 5 -9 4 -11 -3 -6 -7 4 -13
1 -14 -6 0 -7 -2 -17 -2 -23 -1 -5 -6 -17 -11 -25 -8 -13 -7 -13 8 -1 11 9 17
10 17 2 0 -6 5 -11 10 -11 7 0 7 7 0 23 -10 20 -10 20 3 5 8 -10 18 -14 23
-10 5 4 6 3 2 -2 -4 -5 -2 -16 4 -24 15 -17 20 -44 7 -36 -5 3 -6 10 -3 16 5
7 2 8 -6 3 -9 -6 -11 -4 -5 6 7 12 6 12 -6 0 -11 -10 -11 -15 -1 -18 6 -3 10
-9 7 -13 -3 -5 4 -7 16 -5 12 3 29 0 38 -6 14 -9 14 -10 -1 -5 -10 3 -20 1
-23 -5 -4 -5 -3 -9 2 -8 19 3 33 -2 33 -12 0 -5 -5 -7 -12 -3 -7 4 -8 3 -4 -4
5 -8 15 -8 34 -2 l27 10 -22 -19 c-13 -11 -23 -22 -23 -26 0 -4 7 -2 15 5 8 7
20 8 27 4 7 -5 16 -9 20 -9 3 0 10 -4 15 -9 5 -5 2 -6 -6 -1 -9 5 -12 3 -9 -6
3 -8 11 -13 18 -11 7 2 9 -5 5 -18 -5 -16 -2 -20 14 -20 12 0 21 -5 21 -11 0
-5 -4 -7 -10 -4 -6 4 -7 -1 -3 -11 5 -14 8 -13 20 7 9 16 12 17 8 5 -6 -21 51
-80 68 -69 5 3 7 0 5 -8 -3 -8 -11 -13 -17 -11 -7 1 -10 -2 -6 -7 3 -6 12 -8
20 -4 11 4 14 0 9 -13 -3 -11 -2 -15 3 -9 4 6 17 12 27 13 18 3 18 2 5 -14
-12 -15 -12 -16 0 -9 11 6 13 4 9 -7 -4 -8 2 -22 13 -31 10 -9 19 -13 19 -7 0
5 -7 13 -15 17 -12 7 -11 10 5 21 12 7 20 8 20 2 0 -5 -6 -10 -12 -10 -7 0 5
-16 27 -34 22 -19 44 -32 49 -28 5 3 6 0 2 -6 -4 -7 -2 -12 5 -12 8 0 7 -5 -2
-17 -12 -14 -12 -16 0 -8 11 6 13 4 9 -7 -4 -8 0 -15 8 -15 7 0 11 4 8 8 -2 4
0 11 6 14 6 4 9 1 8 -7 -2 -8 5 -12 17 -10 20 3 20 3 1 -11 -19 -14 -19 -15 1
-25 11 -6 23 -8 27 -5 3 3 6 1 6 -5 0 -6 8 -9 18 -6 16 5 16 5 0 -6 -10 -6
-18 -16 -18 -22 0 -7 4 -7 13 1 10 8 19 6 34 -9 12 -10 25 -16 29 -12 5 4 2
-2 -6 -12 -14 -18 -13 -19 3 -13 13 5 22 -2 36 -23 10 -17 21 -27 24 -23 4 3
7 1 7 -5 0 -6 9 -14 20 -17 11 -3 20 -11 20 -17 0 -6 -6 -6 -15 2 -10 9 -15 9
-15 1 0 -11 9 -14 42 -14 9 0 16 -5 15 -11 -1 -6 4 -10 11 -8 9 2 12 -4 7 -17
-6 -21 15 -34 43 -24 14 5 15 3 5 -8 -17 -17 -16 -26 2 -26 8 0 12 3 10 7 -2
4 2 7 10 7 19 0 19 -2 0 -21 -14 -14 -12 -15 14 -11 24 3 29 0 24 -13 -6 -15
-5 -16 13 -2 19 14 19 14 0 -7 -18 -22 -18 -22 15 -18 30 4 31 4 13 -11 -14
-12 -15 -14 -3 -11 9 3 22 1 30 -5 11 -8 10 -9 -3 -4 -10 3 -18 1 -18 -4 0 -6
5 -10 11 -10 5 0 7 -6 3 -12 -5 -10 -4 -10 6 -1 10 9 16 8 27 -3 8 -8 19 -12
24 -9 5 4 9 1 9 -5 0 -7 -7 -10 -15 -7 -8 4 -17 1 -21 -5 -4 -7 -3 -8 4 -4 7
4 12 2 12 -4 0 -7 7 -7 23 1 21 12 21 11 7 -6 -14 -17 -13 -18 2 -13 11 5 20
-2 28 -22 6 -16 19 -31 28 -35 14 -5 15 -4 5 6 -7 7 -13 18 -13 23 0 6 7 0 16
-12 13 -19 14 -25 2 -39 -12 -15 -11 -15 9 -5 28 15 40 15 25 0 -15 -15 -15
-28 -1 -28 5 0 7 5 4 10 -3 6 -2 10 4 10 10 0 27 -39 23 -53 -1 -5 1 -6 6 -3
12 7 54 -38 45 -49 -5 -4 -2 -5 5 -1 7 4 10 11 7 16 -3 5 -1 12 5 15 6 4 10 3
9 -2 -4 -24 3 -43 16 -43 8 0 15 -5 15 -11 0 -5 -4 -7 -10 -4 -6 3 -7 -1 -3
-10 3 -9 9 -13 12 -8 11 15 31 13 31 -3 0 -8 -4 -13 -9 -9 -5 3 -12 1 -15 -4
-4 -5 1 -8 10 -7 8 1 19 8 23 15 6 9 10 7 14 -8 3 -13 1 -19 -5 -14 -7 3 -8 1
-4 -5 4 -7 1 -12 -6 -12 -7 0 -5 -5 6 -12 14 -8 24 -8 37 0 14 9 16 8 12 -9
-5 -17 5 -24 30 -20 4 1 12 -10 19 -24 6 -13 15 -22 21 -18 6 3 7 1 3 -5 -4
-6 -13 -9 -21 -6 -8 4 -12 11 -8 17 3 6 1 7 -5 3 -8 -4 -10 -2 -6 8 4 10 0 14
-12 12 -10 -2 -19 -8 -20 -15 -1 -6 0 -7 2 -2 3 5 15 -1 28 -12 12 -12 20 -26
18 -30 -2 -5 4 -4 15 2 21 10 43 -2 43 -24 0 -5 -5 -3 -11 5 -9 13 -10 13 -6
0 2 -8 11 -14 20 -14 10 1 13 -4 10 -14 -4 -9 -2 -13 4 -9 5 4 20 -4 33 -18
17 -18 21 -31 16 -52 -5 -23 -4 -25 4 -10 6 9 16 17 23 17 8 0 8 -3 2 -8 -5
-4 -11 -16 -13 -27 -2 -18 -2 -18 8 -2 6 9 16 17 23 17 8 0 7 -4 -2 -9 -12 -7
-12 -13 -3 -24 7 -7 10 -16 7 -19 -3 -3 5 -13 17 -24 12 -10 18 -13 14 -6 -4
6 -3 12 2 12 12 0 34 -49 27 -61 -3 -5 1 -6 9 -3 9 3 14 10 11 14 -3 5 -1 11
4 15 6 3 8 -5 5 -18 -2 -13 3 -32 12 -43 8 -10 13 -14 10 -8 -3 6 1 11 9 11
10 0 11 -5 4 -18 -7 -14 -4 -21 13 -33 17 -12 24 -13 30 -3 4 6 8 7 8 2 0 -6
-5 -16 -11 -22 -12 -12 6 -49 30 -58 11 -4 11 -2 3 8 -7 8 -8 18 -4 22 4 5 1
5 -7 0 -10 -6 -12 -4 -6 5 6 9 4 11 -5 5 -9 -5 -11 -4 -6 4 6 9 11 9 22 1 7
-7 13 -15 12 -18 -1 -4 4 -18 11 -31 8 -14 9 -21 2 -17 -6 4 -11 2 -11 -4 0
-8 10 -10 28 -6 21 5 23 4 10 -4 -17 -11 -14 -40 4 -40 6 0 4 8 -3 18 -11 13
-8 12 11 -3 26 -21 41 -40 40 -50 -1 -3 9 -15 22 -25 13 -11 17 -19 11 -20
-22 0 -14 -28 10 -36 12 -5 27 -7 32 -5 6 1 7 -1 3 -4 -4 -4 -3 -17 3 -28 8
-14 8 -18 0 -13 -16 10 -13 -10 4 -28 17 -17 20 -30 4 -21 -6 4 -5 -2 3 -14 7
-12 17 -21 22 -21 4 0 3 6 -3 13 -8 10 -7 14 2 14 8 0 14 -5 15 -11 6 -43 9
-53 16 -64 4 -7 12 -9 18 -6 6 4 6 -1 -1 -14 -8 -16 -7 -21 4 -26 8 -3 14 -2
12 2 -1 4 2 8 7 10 6 1 11 -4 12 -13 1 -8 -2 -13 -7 -9 -5 3 -9 -2 -9 -11 0
-9 5 -13 10 -10 6 3 10 2 10 -4 0 -5 -6 -12 -12 -14 -13 -6 16 -11 41 -8 7 2
10 -3 6 -9 -4 -6 -13 -9 -21 -6 -8 3 -14 -1 -14 -9 0 -8 6 -14 13 -12 8 1 11
-10 10 -33 -1 -27 1 -31 8 -17 6 9 7 22 4 27 -3 6 -4 10 -1 10 3 0 10 -10 17
-21 8 -15 8 -19 0 -15 -6 4 -11 2 -11 -3 0 -6 4 -11 10 -11 5 0 6 -7 3 -17 -4
-9 -2 -14 3 -10 6 3 16 1 24 -5 12 -8 12 -9 -2 -4 -12 3 -18 0 -18 -10 0 -8 6
-14 13 -13 34 4 39 -2 18 -20 -18 -16 -19 -20 -6 -25 9 -3 13 -2 10 3 -3 5 0
13 6 17 7 4 9 3 5 -4 -3 -6 -2 -13 4 -17 6 -4 8 -11 5 -16 -10 -14 5 -50 17
-43 6 4 8 2 5 -3 -4 -6 1 -14 10 -17 10 -4 13 -10 8 -14 -6 -4 -16 -18 -24
-32 l-14 -25 22 19 c22 20 30 9 9 -13 -9 -10 -9 -12 -1 -7 15 8 14 -33 -1 -53
-8 -11 -8 -13 2 -7 12 7 16 -4 12 -34 -1 -8 1 -12 5 -8 3 3 8 13 9 22 3 21 19
22 22 1 1 -8 -2 -13 -6 -10 -7 4 -7 -54 0 -62 2 -2 3 -6 4 -10 1 -5 5 -14 9
-20 5 -8 3 -13 -5 -13 -8 0 -9 -3 -3 -8 6 -4 10 -14 10 -22 -1 -8 1 -19 4 -25
9 -17 9 -50 -1 -62 -10 -12 8 -30 19 -19 4 3 1 6 -6 6 -7 0 -9 5 -6 10 4 6 10
8 14 6 3 -3 7 4 7 14 0 10 -4 16 -8 14 -4 -3 -8 0 -8 6 0 7 6 10 13 7 6 -2 11
-10 9 -17 -2 -7 3 -17 10 -21 11 -7 11 -9 0 -9 -7 0 -11 -4 -7 -9 3 -5 1 -12
-4 -16 -12 -7 -3 -35 11 -35 6 0 5 6 -2 15 -7 9 -8 15 -2 15 18 0 21 -27 5
-51 -9 -12 -12 -19 -6 -16 6 4 14 0 17 -9 4 -10 2 -13 -6 -8 -8 5 -9 2 -5 -9
4 -10 10 -24 14 -34 4 -11 3 -14 -6 -8 -10 6 -11 3 -1 -15 13 -25 6 -55 -11
-44 -8 4 -9 3 -5 -4 4 -6 14 -8 24 -5 9 3 14 3 10 -2 -4 -4 -2 -15 5 -23 9
-13 9 -14 0 -8 -12 6 -16 -4 -12 -30 0 -4 -5 -11 -13 -16 -10 -8 -10 -9 2 -5
8 2 14 9 13 14 -1 5 4 10 11 10 7 0 13 -6 13 -13 0 -7 -5 -10 -10 -7 -6 4 -8
0 -4 -10 4 -10 2 -14 -7 -11 -7 3 -13 -2 -13 -10 0 -8 4 -13 9 -10 4 3 8 -2 8
-11 0 -9 4 -14 8 -11 10 6 8 -39 -3 -70 -4 -12 -14 -21 -23 -19 -10 1 -11 0
-4 -2 7 -3 10 -9 7 -14 -4 -5 -2 -9 2 -9 5 0 14 9 21 20 7 11 17 20 24 20 7 0
3 -7 -8 -16 -17 -14 -17 -15 -1 -10 11 3 16 2 12 -4 -3 -6 -13 -10 -21 -10 -8
0 -14 -9 -14 -19 0 -11 -4 -23 -10 -26 -5 -3 -10 -1 -10 6 0 7 -3 9 -6 6 -4
-4 -2 -13 4 -20 7 -8 10 -17 7 -20 -3 -4 -2 -5 2 -2 3 3 16 -3 27 -12 l21 -18
-20 24 c-16 20 -17 23 -4 18 11 -4 16 0 15 11 0 10 5 16 13 14 7 -2 21 4 31
13 9 8 20 12 25 8 4 -5 5 -2 1 5 -4 7 -11 10 -16 7 -14 -9 -18 31 -4 50 8 10
14 14 14 9 0 -6 -6 -16 -12 -23 -11 -11 -10 -13 2 -9 19 6 26 38 10 48 -8 5
-7 9 5 13 9 4 13 3 10 -3 -3 -6 -1 -10 4 -10 6 0 11 7 11 15 0 8 -5 15 -12 15
-6 0 -9 2 -6 5 10 10 38 -7 31 -19 -3 -6 -2 -8 2 -4 5 5 9 20 11 35 1 16 0 22
-3 16 -2 -7 -9 -13 -14 -13 -5 0 -4 9 3 19 7 11 17 17 23 13 5 -3 4 1 -3 10
-10 13 -8 17 18 28 16 7 27 16 25 20 -3 5 -1 12 5 15 8 5 7 12 -2 23 -11 13
-10 15 4 9 12 -4 15 -2 12 8 -3 8 -13 11 -22 8 -18 -7 -17 -5 12 17 11 8 17
10 13 3 -4 -6 -2 -15 4 -19 8 -4 9 -3 5 4 -4 7 -1 12 6 12 8 0 6 5 -4 11 -10
5 -18 15 -18 22 0 8 3 8 8 2 4 -5 16 -11 27 -13 16 -2 17 -1 6 7 -8 5 -16 24
-17 42 -2 18 0 29 4 24 4 -6 14 -11 22 -13 12 -3 12 -1 3 9 -13 13 -7 39 9 39
6 0 4 -8 -3 -17 -11 -15 -10 -15 8 1 13 10 20 22 18 27 -3 4 3 13 12 19 17 11
17 11 1 6 -10 -3 -18 -2 -19 2 0 4 -2 17 -3 29 -2 13 2 19 7 16 6 -4 8 0 5 9
-4 8 -2 21 4 29 8 11 9 11 4 -3 -3 -10 -2 -19 2 -22 4 -3 9 9 10 25 2 21 -1
28 -9 23 -8 -4 -9 -3 -5 5 4 6 11 9 15 7 12 -8 31 9 36 33 2 12 1 19 -3 17 -5
-3 -9 4 -9 15 -1 10 7 24 18 29 20 11 26 30 8 30 -5 0 -8 -4 -5 -8 3 -5 -1 -9
-9 -9 -22 0 -18 15 5 22 11 3 20 11 20 16 0 6 -4 8 -9 4 -5 -3 -12 -1 -15 4
-4 5 5 8 19 6 14 -1 25 2 25 6 0 5 -4 9 -8 9 -14 0 -10 29 4 34 9 3 11 -1 7
-12 -3 -9 -3 -14 1 -11 10 9 16 50 7 44 -5 -3 -11 2 -15 10 -3 8 -1 17 5 20 5
4 6 12 2 18 -5 9 -2 8 8 0 13 -11 15 -9 14 8 -1 11 -7 24 -14 29 -11 6 -11 8
0 12 12 4 12 9 1 34 -14 29 -14 29 6 9 11 -11 18 -23 15 -27 -2 -4 3 -5 12 -2
14 6 14 8 -2 20 -10 7 -14 14 -9 14 6 0 1 7 -10 15 -16 13 -16 14 -1 9 13 -5
16 -2 11 12 -5 16 -4 16 5 4 9 -13 12 -13 23 -1 10 10 10 12 1 7 -7 -4 -13 -2
-13 4 0 6 7 13 15 16 10 4 12 10 6 18 -12 15 -12 28 2 45 9 11 9 13 1 8 -7 -4
-14 2 -17 13 -3 14 3 26 20 40 14 11 21 20 16 20 -5 0 -14 -5 -20 -11 -7 -7
-12 -6 -17 6 -4 11 -2 14 6 9 8 -5 9 -2 5 10 -4 9 -3 15 2 12 5 -3 8 9 7 27
-2 21 -7 31 -16 29 -11 -3 -11 0 -1 12 7 9 17 14 21 11 4 -2 13 8 19 22 11 24
10 29 -11 44 -12 10 -19 21 -15 25 4 4 7 2 7 -4 0 -7 7 -12 15 -12 8 0 15 5
15 11 0 5 -3 8 -7 6 -5 -3 -16 6 -27 20 l-19 25 26 -17 c25 -16 25 -16 20 5
-4 13 0 25 7 30 10 6 11 13 4 22 -15 19 -11 44 6 40 12 -3 12 0 -1 15 -19 22
-18 49 1 45 10 -3 9 3 -5 18 -10 11 -26 18 -34 15 -10 -3 -9 0 3 10 15 11 22
12 27 3 4 -6 6 0 6 15 -1 14 -4 24 -7 22 -3 -2 -11 3 -18 11 -7 8 -10 14 -6
14 3 0 2 6 -4 13 -5 6 -8 22 -6 35 3 16 0 21 -8 16 -7 -4 -6 1 3 12 8 10 14
30 13 44 -1 14 3 28 10 32 8 6 8 8 0 8 -6 0 -17 -7 -24 -15 -10 -12 -10 -15 0
-15 8 0 11 -3 7 -6 -3 -3 -11 -3 -17 1 -8 5 -8 11 1 21 6 7 9 21 5 29 -3 8 -2
15 3 15 5 0 8 13 7 29 0 16 -4 27 -9 24 -4 -2 -4 -10 -1 -16 4 -7 4 -9 -1 -5
-10 9 -13 68 -3 62 4 -2 10 1 14 7 4 8 3 9 -4 5 -8 -5 -12 1 -12 16 0 41 -3
58 -12 58 -11 0 -10 -7 2 -31 6 -10 8 -19 6 -19 -3 0 -10 9 -16 21 -9 15 -8
24 1 35 6 8 8 14 4 14 -4 0 -2 6 4 14 9 11 9 16 0 22 -8 4 -9 3 -5 -4 4 -7 1
-12 -10 -12 -14 0 -14 -3 -4 -15 11 -13 10 -14 -3 -9 -18 6 -32 35 -16 31 6
-1 15 8 20 21 6 17 4 25 -11 34 -17 11 -17 13 -2 25 15 11 15 12 1 7 -11 -3
-18 2 -22 16 -4 16 -2 19 7 11 9 -8 13 -7 13 4 0 8 -7 15 -14 15 -8 0 -11 5
-8 10 4 6 11 7 17 4 7 -4 8 -2 4 4 -4 6 -14 8 -24 5 -15 -6 -16 -5 -2 13 8 10
11 16 6 12 -4 -4 -14 -2 -21 5 -9 9 -7 15 9 30 l21 18 -23 -13 c-19 -11 -24
-11 -32 2 -6 10 -4 20 6 31 13 15 13 18 0 32 -8 8 -12 18 -8 21 3 4 -7 17 -22
30 -20 16 -24 23 -13 23 9 0 14 -4 11 -9 -3 -4 -1 -8 4 -8 6 0 12 7 16 15 3 8
2 14 -2 14 -30 -5 -44 2 -37 19 12 30 14 53 4 47 -5 -4 -9 -1 -9 6 0 7 -3 9
-6 6 -4 -4 -1 -13 5 -21 9 -11 9 -16 0 -22 -7 -4 -9 -3 -5 4 3 6 1 14 -5 17
-5 4 -8 13 -5 21 6 15 -27 37 -40 26 -5 -4 -2 1 5 10 13 18 6 42 -10 33 -14
-9 -11 2 7 19 9 10 11 16 4 16 -6 0 -10 10 -9 23 4 29 -8 48 -26 40 -9 -3 -15
1 -15 11 0 10 6 14 18 10 16 -5 16 -5 0 6 -20 12 -25 36 -6 24 7 -4 8 -3 4 5
-6 9 -11 9 -22 0 -9 -7 -14 -8 -14 -1 0 6 5 14 10 17 13 8 13 25 -1 25 -5 0
-8 -4 -5 -9 3 -5 -1 -11 -9 -14 -9 -4 -12 -1 -8 8 3 8 -2 18 -11 21 -19 7 -22
70 -4 76 8 3 6 7 -5 11 -9 3 -19 1 -23 -5 -5 -7 -2 -8 6 -3 8 5 11 4 6 -3 -4
-6 -14 -8 -23 -5 -11 4 -13 8 -5 11 7 2 10 8 7 12 -3 5 -12 7 -19 4 -8 -3 -17
-1 -20 4 -3 5 1 9 10 8 10 0 18 8 20 24 3 18 2 21 -5 10 -5 -8 -7 -18 -5 -22
3 -4 -3 -5 -12 -1 -12 4 -14 8 -6 11 10 3 10 7 0 20 -8 10 -9 13 -1 9 6 -4 15
-3 18 3 4 6 3 10 -2 9 -20 -3 -34 2 -28 11 3 6 1 11 -4 11 -6 1 -16 2 -23 3
-12 1 -21 36 -9 36 4 0 13 -6 21 -12 9 -8 8 -5 -1 7 -9 11 -14 27 -12 35 3 9
-1 7 -11 -5 l-16 -20 7 20 c6 18 5 18 -10 6 -15 -12 -17 -12 -11 4 6 14 3 16
-17 10 -16 -4 -19 -3 -11 3 7 5 12 13 11 18 -1 5 0 11 1 14 7 19 7 39 -1 34
-5 -3 -7 -9 -5 -13 3 -3 -4 -7 -14 -7 -19 0 -19 1 1 22 18 19 18 22 4 20 -9
-1 -20 -8 -24 -15 -6 -10 -10 -9 -14 4 -4 9 -3 13 3 10 6 -3 10 1 10 10 0 9
-5 13 -10 10 -6 -4 -10 -3 -9 2 3 20 -2 27 -12 13 -8 -12 -9 -10 -4 7 5 19 3
22 -12 17 -15 -5 -15 -4 -3 5 17 12 10 21 -18 24 -16 1 -18 4 -10 14 12 15 22
17 13 3 -9 -15 1 -12 14 4 10 12 8 14 -14 12 -14 -2 -28 1 -32 7 -3 6 -1 7 5
3 6 -3 13 -2 17 4 9 14 -28 12 -45 -2 -12 -11 -12 -10 -1 4 10 14 9 18 -6 28
-16 10 -16 10 4 5 12 -3 24 -1 28 4 4 7 -1 8 -12 4 -16 -6 -16 -5 -4 11 12 15
12 17 0 14 -8 -2 -13 3 -11 11 3 12 0 12 -12 1 -19 -15 -21 0 -3 20 10 12 9
12 -3 3 -13 -10 -18 -8 -28 8 -7 11 -10 24 -7 30 4 5 1 8 -7 7 -7 -2 -12 3
-10 10 1 8 -2 11 -8 7 -8 -5 -7 -11 1 -21 10 -12 9 -13 -5 -8 -9 4 -16 14 -15
23 3 29 -1 34 -15 22 -12 -10 -13 -8 -9 8 3 12 10 18 17 14 6 -3 7 -2 3 2 -15
17 -36 14 -29 -3 5 -15 4 -15 -12 1 -10 9 -23 14 -29 10 -8 -4 -7 -1 1 9 9 11
10 18 2 23 -5 3 -10 11 -10 18 0 6 6 2 14 -8 8 -11 12 -23 10 -26 -2 -4 6 -5
18 -1 l22 5 -22 8 c-19 7 -26 19 -24 40 1 3 -5 6 -13 6 -8 0 -12 -4 -10 -8 3
-3 -3 -9 -13 -11 -15 -4 -18 0 -17 21 1 15 5 32 9 39 4 7 4 12 -1 11 -17 -4
-43 14 -36 25 3 6 3 8 -2 4 -4 -4 -15 -3 -24 3 -9 7 -2 -2 14 -18 17 -16 31
-36 33 -44 1 -8 -4 -6 -14 6 -8 11 -20 19 -25 17 -6 -1 -8 2 -5 6 7 11 -28 45
-37 36 -3 -3 -4 8 -2 26 4 29 3 30 -12 18 -9 -7 -14 -8 -11 -3 11 17 -7 37
-35 38 -14 1 -23 6 -20 10 3 5 11 6 17 4 7 -3 13 1 13 8 0 8 -7 11 -16 7 -14
-5 -14 -4 -2 12 8 9 10 16 5 15 -22 -4 -35 2 -28 13 5 7 3 8 -6 3 -10 -6 -10
-10 3 -20 8 -6 12 -16 8 -23 -4 -7 -12 1 -20 20 -12 25 -12 32 0 39 9 6 10 9
2 9 -6 0 -15 -5 -18 -11 -5 -7 -13 -5 -24 5 -10 9 -21 13 -26 9 -4 -5 -5 -2
-1 5 7 11 -6 17 -28 13 -5 -1 -3 5 4 14 11 14 11 18 1 25 -10 5 -10 9 -2 13 7
3 7 4 -1 3 -7 -2 -12 -10 -12 -19 1 -9 -2 -14 -7 -11 -5 3 -6 16 -3 30 4 15 2
24 -6 24 -6 0 -9 -4 -5 -9 3 -5 1 -12 -4 -16 -6 -3 -8 4 -6 16 3 15 0 19 -11
15 -8 -3 -13 -2 -9 3 3 5 -1 11 -7 14 -10 3 -10 7 -1 19 10 12 10 15 0 15 -6
0 -21 4 -32 7 -13 5 -12 2 5 -8 29 -18 19 -21 -12 -5 -21 11 -21 12 -3 25 18
13 16 14 -13 8 -22 -4 -32 -3 -32 5 0 7 -5 9 -11 5 -8 -5 -8 -1 0 14 15 28 14
37 -4 22 -12 -10 -13 -8 -10 10 2 13 2 20 -2 17 -3 -4 -19 1 -35 9 -23 12 -28
20 -23 37 5 17 4 19 -4 7 -10 -14 -16 -7 -11 15 1 6 -4 4 -11 -2 -16 -16 -29
-17 -29 -2 0 5 4 8 8 5 4 -2 8 6 8 19 0 13 -4 21 -8 19 -5 -3 -6 -10 -3 -15 4
-5 1 -9 -4 -9 -11 0 -15 15 -11 35 1 5 -2 7 -6 3 -4 -4 -13 -3 -20 3 -16 13
-37 2 -28 -13 5 -7 2 -8 -5 -4 -16 10 16 48 33 39 6 -3 7 -2 3 2 -10 12 -38
15 -31 4 3 -5 0 -9 -5 -9 -10 0 -15 20 -13 41 1 4 -8 5 -18 2 -19 -5 -26 10
-21 40 1 5 -3 6 -9 2 -6 -3 -8 -10 -5 -15 3 -4 -1 -10 -9 -13 -8 -3 -13 1 -12
11 0 10 -5 16 -14 14 -12 -3 -12 -1 -3 9 6 6 9 18 6 27 -5 11 -3 13 7 7 9 -5
11 -4 6 3 -12 20 -29 13 -23 -8 6 -23 -8 -27 -17 -5 -3 9 -12 12 -23 8 -15 -5
-15 -3 2 11 20 17 20 17 -5 10 -21 -6 -23 -5 -13 8 10 11 10 17 1 26 -9 9 -16
8 -32 -6 -11 -9 -16 -12 -13 -5 4 6 2 13 -5 16 -7 2 -5 3 5 2 21 -4 22 2 3 21
-16 15 -30 19 -22 6 3 -5 -1 -9 -9 -9 -11 0 -12 4 -3 14 6 7 7 17 3 21 -4 4
-10 1 -12 -5 -9 -25 -32 13 -27 43 5 28 5 28 -10 9 -15 -19 -17 -19 -29 -3 -8
10 -17 15 -21 11 -4 -4 -4 0 -1 9 4 11 -3 20 -23 29 -26 11 -28 15 -14 25 14
10 14 12 -4 21 -10 6 -27 9 -36 8 -10 -2 -18 1 -18 6 0 6 -5 7 -12 3 -6 -4 -8
-3 -5 4 4 5 16 8 27 5 12 -3 20 0 20 6 0 7 -4 10 -9 7 -14 -9 -42 5 -34 17 4
7 0 8 -11 4 -14 -5 -17 -3 -13 8 4 8 1 17 -5 21 -6 4 -8 3 -4 -4 3 -6 1 -14
-5 -18 -8 -5 -10 3 -7 24 3 22 1 29 -6 23 -14 -11 -47 -10 -40 1 3 4 0 8 -7 8
-7 0 -9 3 -6 6 4 4 15 1 24 -7 16 -13 17 -12 5 3 -10 13 -10 17 0 20 8 3 6 7
-6 11 -10 4 -15 3 -11 -3 3 -6 1 -10 -4 -10 -6 0 -11 4 -11 9 0 6 -8 8 -18 6
-13 -2 -18 4 -20 21 -1 13 3 24 8 24 6 0 10 5 10 11 0 8 -4 8 -12 2 -7 -6 -21
-13 -31 -16 -16 -6 -16 -5 0 21 l17 27 -26 -23 -26 -24 2 35 c1 20 -3 33 -8
29 -5 -3 -7 2 -3 12 4 10 3 15 -3 11 -6 -3 -10 -13 -10 -21 0 -22 -15 -17 -18
6 -4 50 -5 50 -21 37 -12 -9 -13 -9 -7 1 4 7 2 12 -4 12 -6 0 -8 5 -5 10 6 10
3 11 -34 14 -11 0 -23 5 -28 10 -5 5 -3 6 5 2 15 -9 16 10 1 20 -6 3 -9 14 -6
23 3 12 -2 17 -16 18 -11 1 -25 9 -29 18 -5 8 -13 13 -18 10 -5 -3 -12 0 -16
6 -4 8 -3 9 4 5 7 -4 12 -3 12 3 0 5 -5 13 -11 16 -6 4 -8 13 -5 21 8 20 0 17
-25 -8 l-23 -23 17 28 c17 26 17 27 0 27 -15 0 -16 2 -3 10 11 7 11 10 2 10
-7 0 -25 13 -40 29 -46 50 -53 61 -42 61 5 0 10 7 10 16 0 14 -2 15 -17 3 -15
-12 -16 -12 -10 4 3 9 2 17 -3 17 -6 0 -10 9 -10 19 0 36 -11 53 -26 40 -17
-14 -19 2 -1 20 10 11 7 12 -13 7 -20 -6 -22 -5 -8 4 10 6 15 17 11 26 -3 10
-9 11 -17 5 -8 -7 -12 -4 -12 9 0 10 4 16 8 14 4 -3 5 2 2 10 -3 9 -13 16 -21
16 -8 0 -11 -5 -7 -12 4 -6 3 -8 -4 -4 -10 6 -8 49 3 67 3 4 -2 9 -10 12 -10
4 -12 1 -9 -11 5 -14 4 -14 -4 -2 -13 17 -6 30 16 30 14 0 15 2 2 9 -8 6 -17
8 -20 6 -3 -2 -6 22 -8 52 -2 43 0 53 10 47 11 -6 11 -5 0 8 -10 13 -10 17 0
22 7 3 3 3 -9 0 -23 -5 -25 -2 -25 36 0 34 1 38 20 42 10 3 19 12 19 21 0 9
-4 14 -9 11 -5 -3 -5 -10 -2 -16 5 -7 0 -9 -14 -6 -12 4 -20 2 -17 -2 3 -5 1
-11 -4 -14 -5 -4 -8 2 -6 11 1 10 9 17 16 15 8 -2 11 0 7 4 -4 4 0 13 10 21 9
8 12 12 7 10 -6 -3 -19 2 -30 10 -20 15 -20 15 0 9 14 -4 24 1 33 15 10 16 10
19 1 13 -9 -5 -10 -2 -6 9 3 9 -1 23 -9 32 -14 13 -13 15 5 15 12 0 20 3 20 8
-1 4 0 9 1 12 7 20 7 41 -2 47 -7 4 -8 1 -3 -8 5 -8 4 -10 0 -6 -14 13 -14 35
0 33 8 0 13 3 12 9 -1 5 -9 9 -17 8 -10 -2 -11 0 -2 3 6 3 9 11 6 16 -4 6 -2
8 3 5 11 -7 25 16 27 43 1 8 7 14 14 12 8 -1 11 2 7 8 -4 6 -1 18 7 27 11 15
11 16 -5 10 -11 -4 -16 -3 -12 3 3 6 12 10 19 10 24 0 35 42 18 70 -10 19 -11
21 0 9 12 -15 15 -15 37 2 13 11 19 19 14 19 -5 0 -15 -6 -22 -12 -11 -11 -11
-9 -2 10 7 12 9 27 6 32 -4 6 1 7 11 3 12 -4 15 -3 10 5 -5 8 -2 10 8 6 9 -3
13 -10 10 -15 -3 -5 0 -9 5 -9 15 0 14 13 -1 29 -11 11 -8 12 12 6 19 -5 22
-4 10 5 -13 9 -13 12 3 21 9 6 15 14 12 20 -4 5 2 6 12 2 16 -6 17 -5 3 12
-14 17 -14 18 10 5 23 -12 24 -12 11 4 -12 14 -12 16 3 10 12 -5 15 -2 10 10
-4 9 -3 16 2 14 5 -1 20 2 32 6 17 5 22 14 19 26 -3 13 0 17 9 13 8 -3 11 -10
8 -17 -3 -6 4 0 15 14 11 14 21 29 21 34 0 4 7 5 16 2 10 -4 13 -2 8 6 -5 8
-2 9 10 5 12 -5 19 0 26 18 5 14 12 25 15 25 4 0 4 -4 1 -9 -3 -5 0 -11 8 -14
10 -4 13 2 11 21 l-3 26 20 -24 c19 -23 20 -23 14 -3 -6 18 -4 21 15 16 18 -5
21 -3 16 11 -4 11 -3 15 4 11 6 -4 13 3 16 15 4 16 8 18 14 9 4 -8 1 -17 -8
-24 -17 -13 -10 -35 10 -35 7 0 6 4 -3 10 -13 9 -13 12 3 21 9 5 17 20 17 32
0 17 2 19 9 7 6 -8 8 -17 6 -20 -2 -4 2 -7 9 -7 8 0 12 6 9 13 -2 6 1 15 8 20
8 4 10 3 5 -4 -4 -7 -1 -12 9 -12 9 0 14 4 11 8 -2 4 4 9 15 9 11 1 17 -3 13
-9 -4 -7 0 -7 12 0 11 5 25 8 32 6 7 -1 8 0 2 3 -5 2 -7 9 -4 15 4 6 -2 6 -14
-1 -25 -13 -31 -6 -26 32 2 19 -2 27 -12 27 -9 0 -12 5 -8 13 6 10 4 10 -7 0
-7 -7 -23 -13 -34 -13 -31 0 -37 -11 -17 -27 15 -13 15 -13 -5 -3 -26 12 -28
21 -11 38 7 7 8 12 2 12 -5 0 -14 -8 -21 -19z m89 -45 c7 4 8 2 4 -5 -9 -13
-26 -5 -25 12 0 9 2 8 6 -1 2 -6 10 -9 15 -6z m-278 -21 c-7 -16 -24 -21 -24
-6 0 8 7 13 27 20 1 1 0 -6 -3 -14z m-120 -33 c3 -5 -1 -9 -9 -9 -8 0 -12 4
-9 9 3 4 7 8 9 8 2 0 6 -4 9 -8z m-129 -72 c3 -5 1 -10 -4 -10 -6 0 -11 5 -11
10 0 6 2 10 4 10 3 0 8 -4 11 -10z m230 -49 c-3 -6 -11 -11 -16 -11 -5 0 -4 6
3 14 14 16 24 13 13 -3z m-51 -42 c-3 -5 -10 -7 -15 -3 -5 3 -7 10 -3 15 3 5
10 7 15 3 5 -3 7 -10 3 -15z m-114 -83 c0 -3 -4 -8 -10 -11 -5 -3 -10 -1 -10
4 0 6 5 11 10 11 6 0 10 -2 10 -4z m-106 -148 c-5 -8 -2 -9 10 -5 14 6 15 3 6
-13 -6 -11 -16 -20 -23 -20 -8 0 -8 3 2 9 9 6 10 11 2 15 -10 7 -6 26 5 26 3
0 2 -5 -2 -12z m-24 -82 c0 -2 -8 -10 -17 -17 -16 -13 -17 -12 -4 4 13 16 21
21 21 13z m-10 -50 c0 -2 -7 -7 -16 -10 -8 -3 -12 -2 -9 4 6 10 25 14 25 6z
m-30 -132 c-10 -11 -40 -9 -40 3 0 3 7 2 16 -1 11 -4 15 -2 11 8 -4 10 -1 13
9 9 11 -4 12 -9 4 -19z m-17 -57 c7 4 6 -1 -2 -10 -11 -13 -11 -17 -1 -17 8 0
11 -3 7 -6 -3 -3 -14 -1 -24 5 -10 6 -13 11 -6 11 7 0 11 6 9 13 -1 6 -1 9 1
4 3 -4 10 -4 16 0z m-13 -77 c0 -5 -4 -10 -10 -10 -5 0 -10 5 -10 10 0 6 5 10
10 10 6 0 10 -4 10 -10z m-631 -140 c-8 -6 -6 -9 7 -12 18 -4 18 -4 -1 -9 -17
-5 -21 -1 -21 16 0 15 5 21 14 18 10 -5 11 -8 1 -13z m639 -20 c-7 -10 -14
-18 -15 -16 -6 6 9 36 18 36 5 0 4 -9 -3 -20z m-668 -120 c0 -5 -2 -10 -4 -10
-3 0 -8 5 -11 10 -3 6 -1 10 4 10 6 0 11 -4 11 -10z m-49 -177 c13 -16 12 -17
-3 -4 -10 7 -18 15 -18 17 0 8 8 3 21 -13z m4 -53 c3 -5 1 -10 -4 -10 -6 0
-11 5 -11 10 0 6 2 10 4 10 3 0 8 -4 11 -10z m-53 -312 c-8 -8 -9 -4 -5 13 4
13 8 18 11 10 2 -7 -1 -18 -6 -23z m32 -314 c3 -8 2 -12 -4 -9 -6 3 -10 10
-10 16 0 14 7 11 14 -7z m1506 -69 c0 -1 -9 -5 -19 -8 -13 -3 -18 -1 -14 9 4
10 33 10 33 -1z m-1483 -62 c0 -9 -4 -10 -14 -2 -7 6 -13 12 -13 14 0 1 6 2
13 2 8 0 14 -6 14 -14z m53 -153 c0 -5 -8 -10 -17 -10 -15 0 -16 2 -3 10 19
12 20 12 20 0z m1780 -126 c0 -8 -19 -13 -24 -6 -3 5 1 9 9 9 8 0 15 -2 15 -3z
m55 -64 c-3 -4 0 -11 5 -13 6 -3 5 -4 -1 -3 -7 1 -13 10 -15 19 -1 9 2 15 7
11 5 -3 7 -9 4 -14z m-1766 -47 c-1 -5 -1 -15 0 -23 1 -13 3 -13 12 0 9 13 10
13 6 -1 -3 -9 -1 -21 5 -27 6 -6 5 -12 -4 -17 -7 -5 -10 -5 -6 0 4 4 -1 19
-12 33 -11 13 -17 28 -14 33 6 11 14 12 13 2z m1893 -85 c-7 -7 -12 -8 -12 -2
0 14 12 26 19 19 2 -3 -1 -11 -7 -17z m-1797 -58 c-3 -5 -12 -10 -18 -10 -7 0
-6 4 3 10 19 12 23 12 15 0z m2449 -608 c3 -5 -1 -9 -9 -9 -8 0 -12 4 -9 9 3
4 7 8 9 8 2 0 6 -4 9 -8z m20 -38 c3 -8 10 -13 15 -9 5 3 12 1 16 -5 11 -18
-22 -10 -40 10 -10 11 -13 20 -8 20 6 0 14 -7 17 -16z m416 -648 c0 -3 -4 -8
-10 -11 -5 -3 -10 -1 -10 4 0 6 5 11 10 11 6 0 10 -2 10 -4z m-1736 -28 c-3
-4 -9 -8 -15 -8 -5 0 -9 4 -9 8 0 5 7 9 15 9 8 0 12 -4 9 -9z m1770 -33 c-5
-11 -9 -12 -19 -2 -9 8 -10 14 -2 19 16 9 27 0 21 -17z m-1394 -325 c13 -11
21 -22 18 -25 -2 -3 -15 6 -28 20 -28 30 -22 33 10 5z m1515 10 c3 -6 -1 -7
-9 -4 -18 7 -21 14 -7 14 6 0 13 -4 16 -10z m-1421 -72 c-3 -4 -11 -5 -19 -1
-21 7 -19 12 4 10 11 0 18 -5 15 -9z m51 -87 c-3 -6 -11 -11 -16 -11 -5 0 -4
6 3 14 14 16 24 13 13 -3z m1439 -69 c2 -4 0 -14 -6 -22 -8 -12 -9 -12 -5 2 3
9 1 19 -6 22 -9 3 -9 5 0 5 6 1 14 -3 17 -7z m-1184 -212 c0 -5 -2 -10 -4 -10
-3 0 -8 5 -11 10 -3 6 -1 10 4 10 6 0 11 -4 11 -10z m20 -24 c0 -11 -19 -15
-25 -6 -3 5 1 10 9 10 9 0 16 -2 16 -4z m1205 -24 c-3 -3 -11 0 -18 7 -9 10
-8 11 6 5 10 -3 15 -9 12 -12z m10 -102 c3 -5 1 -10 -4 -10 -6 0 -11 5 -11 10
0 6 2 10 4 10 3 0 8 -4 11 -10z m-1095 -22 c0 -4 -4 -8 -9 -8 -6 0 -12 4 -15
8 -3 5 1 9 9 9 8 0 15 -4 15 -9z m1120 -119 c0 -3 -7 -6 -15 -6 -8 0 -13 3
-10 5 3 3 -1 12 -8 20 -11 13 -9 14 11 1 12 -8 22 -16 22 -20z m3 -62 c-11
-18 -12 -36 -2 -43 5 -3 6 -11 2 -17 -10 -16 -11 -30 -2 -42 4 -6 2 -18 -6
-28 -11 -15 -12 -13 -11 20 1 21 5 44 9 51 5 7 3 12 -3 12 -6 0 -8 11 -6 26 4
21 2 25 -12 20 -14 -5 -13 -3 2 9 21 16 41 10 29 -8z m-928 -77 c-3 -5 -12
-10 -18 -10 -7 0 -6 4 3 10 19 12 23 12 15 0z m925 -154 c0 -12 -13 -36 -19
-36 -4 0 -7 9 -8 20 -1 11 4 20 13 20 8 0 14 -2 14 -4z m-829 -39 c-10 -9 -11
-8 -5 6 3 10 9 15 12 12 3 -3 0 -11 -7 -18z m786 -239 c2 -18 0 -20 -7 -8 -12
18 -13 30 -2 30 4 0 9 -10 9 -22z m-17 -12 c0 -2 -8 -10 -17 -17 -16 -13 -17
-12 -4 4 13 16 21 21 21 13z m-510 -336 c0 -5 -5 -10 -11 -10 -5 0 -7 5 -4 10
3 6 8 10 11 10 2 0 4 -4 4 -10z m7 -26 c-3 -3 -12 -4 -19 -1 -8 3 -5 6 6 6 11
1 17 -2 13 -5z m408 -64 c-3 -5 -12 -10 -18 -10 -7 0 -6 4 3 10 19 12 23 12
15 0z m-391 -8 c-6 -4 -10 -15 -8 -25 1 -9 -1 -15 -6 -12 -7 4 -7 22 -1 43 1
1 7 2 14 2 8 0 9 -3 1 -8z m24 -47 c-3 -3 -9 2 -12 12 -6 14 -5 15 5 6 7 -7
10 -15 7 -18z m308 -111 c1 -9 0 -13 -4 -10 -3 4 -7 14 -8 22 -1 9 0 13 4 10
3 -4 7 -14 8 -22z m-98 -214 c-7 -10 -14 -18 -15 -16 -6 6 9 36 18 36 5 0 4
-9 -3 -20z m-130 -235 c-2 -6 -8 -10 -15 -10 -6 0 -22 -9 -34 -20 -24 -20 -24
-20 -9 0 28 38 68 58 58 30z"/>
<path d="M5386 9578 c3 -5 9 -6 13 -4 3 3 7 -3 7 -13 0 -19 -31 -23 -44 -6 -9
12 -32 18 -33 8 -7 -39 -5 -53 4 -44 6 6 22 11 37 11 20 0 22 -2 10 -10 -8 -5
-11 -10 -6 -10 5 0 18 8 28 17 10 9 32 17 48 18 16 1 33 5 37 10 5 4 2 5 -4 1
-7 -4 -13 -2 -13 4 0 7 -12 9 -29 7 -22 -4 -28 -2 -24 8 3 9 -2 13 -15 12 -12
0 -18 -5 -16 -9z"/>
<path d="M5147 9557 c-7 -18 8 -33 18 -17 4 6 11 7 17 4 7 -4 8 -2 4 5 -4 6
-11 9 -16 6 -4 -3 -10 0 -12 7 -3 8 -7 6 -11 -5z"/>
<path d="M5370 9560 c0 -5 5 -10 10 -10 6 0 10 5 10 10 0 6 -4 10 -10 10 -5 0
-10 -4 -10 -10z"/>
<path d="M5428 9523 c7 -3 16 -2 19 1 4 3 -2 6 -13 5 -11 0 -14 -3 -6 -6z"/>
<path d="M4930 9499 c0 -6 -7 -8 -16 -5 -8 3 -12 2 -9 -3 9 -15 44 -9 38 6 -6
16 -13 17 -13 2z"/>
<path d="M4660 9370 c14 -9 7 -14 -13 -11 -5 1 -6 -3 -2 -9 5 -8 11 -8 21 1
15 12 10 29 -9 29 -7 0 -6 -4 3 -10z"/>
<path d="M5015 9340 c-3 -5 -1 -10 4 -10 6 0 11 5 11 10 0 6 -2 10 -4 10 -3 0
-8 -4 -11 -10z"/>
<path d="M4193 8939 c3 -9 -3 -23 -14 -32 -10 -9 -19 -22 -19 -29 0 -6 1 -9 3
-7 1 2 12 15 24 29 17 19 19 29 12 40 -9 13 -10 13 -6 -1z"/>
<path d="M3804 8872 c11 -15 -11 -35 -28 -25 -5 3 -6 1 -2 -5 4 -8 0 -12 -11
-12 -10 0 -14 -3 -8 -8 13 -9 13 -27 1 -39 -5 -4 -6 -3 -3 3 4 7 1 17 -6 22
-10 9 -13 5 -11 -18 1 -17 -2 -27 -7 -24 -5 3 -17 0 -26 -5 -15 -8 -15 -11 -3
-12 8 -1 19 -1 23 0 5 1 6 -3 3 -8 -7 -10 -25 -9 -43 2 -7 5 -10 0 -6 -15 4
-19 3 -20 -6 -8 -9 13 -11 13 -12 -2 -3 -32 -4 -36 -13 -45 -5 -5 -6 -3 -2 5
4 6 2 12 -3 12 -6 0 -11 -5 -11 -11 0 -5 -4 -8 -8 -5 -4 2 -14 0 -22 -6 -12
-8 -12 -9 3 -4 9 3 17 1 17 -4 0 -6 -6 -10 -14 -10 -24 0 -67 -60 -60 -84 6
-21 6 -21 -11 -1 -9 11 -14 14 -10 8 5 -11 -5 -17 -26 -15 -4 1 -6 -7 -6 -16
0 -34 -3 -43 -13 -37 -5 3 -10 2 -10 -4 0 -5 6 -12 13 -14 7 -3 5 -6 -5 -6
-16 -1 -22 -12 -19 -33 0 -4 -5 -5 -13 -2 -8 3 -17 0 -22 -7 -4 -7 -3 -10 2
-6 5 3 10 -3 10 -13 0 -10 -4 -17 -7 -14 -4 2 -11 -1 -15 -7 -5 -9 -11 -7 -21
6 -7 11 -13 14 -13 8 0 -7 7 -19 16 -27 14 -15 13 -16 -8 -16 -23 -1 -23 -1
-3 -16 19 -15 19 -15 -10 -9 -22 5 -26 4 -15 -4 12 -8 12 -13 3 -22 -9 -9 -16
-9 -30 1 -11 9 -14 9 -7 2 13 -16 6 -64 -8 -55 -6 3 -8 0 -6 -8 3 -8 11 -13
18 -11 11 3 11 0 0 -12 -13 -17 -25 -22 -16 -7 3 5 -1 11 -9 15 -8 3 -17 0
-21 -6 -4 -7 -3 -8 4 -4 8 5 11 0 8 -16 -3 -13 -5 -24 -7 -25 -1 -2 -2 -7 -3
-12 -3 -22 -25 -34 -39 -23 -10 9 -14 8 -14 -3 0 -7 3 -14 6 -13 18 2 24 -3
13 -10 -12 -8 -22 -39 -24 -71 -1 -8 -9 -16 -19 -18 -10 -3 -18 -12 -18 -21
-2 -54 -7 -62 -27 -42 -7 7 -11 6 -11 -4 0 -8 3 -13 7 -11 3 2 12 -6 20 -18
12 -20 12 -21 -4 -8 -9 8 -20 11 -23 7 -4 -4 -3 -10 3 -14 15 -10 11 -37 -5
-37 -8 0 -17 7 -19 15 -5 13 -3 13 14 0 17 -14 18 -14 6 2 -8 9 -20 14 -28 11
-9 -3 -11 -10 -6 -17 17 -21 21 -45 10 -52 -6 -4 -8 -3 -5 3 3 5 0 10 -7 10
-13 0 -14 -36 -1 -56 3 -6 1 -11 -4 -11 -6 0 -11 -5 -11 -11 0 -5 4 -8 9 -4 5
3 13 0 17 -6 4 -7 3 -9 -3 -6 -6 4 -13 0 -17 -8 -3 -8 -11 -15 -18 -15 -9 0
-9 3 2 11 13 9 13 10 0 6 -8 -2 -15 -15 -15 -28 -1 -13 -6 -23 -11 -22 -6 1
-11 -4 -11 -12 0 -8 4 -12 9 -9 4 3 8 -2 8 -10 0 -9 -4 -16 -8 -16 -4 0 -8 -9
-9 -20 -1 -11 2 -18 6 -16 4 3 8 -2 8 -10 0 -9 -6 -13 -14 -10 -9 4 -11 2 -6
-7 14 -22 12 -38 -7 -49 -10 -7 -16 -18 -12 -26 3 -10 1 -13 -6 -8 -6 3 -14 1
-18 -5 -5 -8 -3 -9 6 -4 10 6 12 4 7 -9 -4 -10 -7 -20 -7 -22 0 -3 -6 -2 -12
2 -10 6 -10 4 -2 -7 9 -13 11 -30 4 -44 -1 -3 -3 -8 -4 -12 -1 -5 -5 -14 -9
-20 -5 -8 -4 -13 2 -13 6 0 12 5 12 10 1 6 2 15 3 20 0 6 4 10 9 10 4 0 9 0
11 0 3 0 -1 -12 -9 -27 -9 -18 -11 -32 -4 -44 12 -24 11 -39 -2 -16 -5 9 -15
17 -22 17 -8 0 -8 -3 -2 -8 14 -10 39 -56 27 -48 -6 3 -13 -1 -16 -10 -9 -24
-7 -36 6 -28 7 4 8 3 4 -4 -4 -7 -19 -10 -34 -7 -26 5 -27 5 -3 -5 23 -10 23
-11 5 -32 -19 -21 -19 -21 6 -8 25 13 25 13 6 -8 -10 -12 -23 -19 -27 -16 -5
3 -9 1 -9 -5 0 -5 6 -12 13 -14 9 -4 8 -8 -3 -16 -10 -7 -11 -11 -2 -11 6 0
12 -5 12 -11 0 -5 -4 -7 -10 -4 -5 3 -10 1 -10 -5 0 -8 9 -10 24 -6 26 7 44
-8 25 -20 -8 -4 -9 -3 -5 4 8 14 -1 14 -29 2 -18 -8 -18 -9 -2 -9 10 -1 15 -6
12 -11 -4 -6 -10 -8 -15 -5 -5 3 -7 -6 -4 -21 3 -19 1 -24 -8 -18 -10 6 -11 5
-1 -8 7 -8 11 -17 8 -20 -3 -3 1 -10 9 -17 8 -6 12 -21 9 -32 -5 -18 -6 -19
-20 -2 -13 16 -13 16 -3 -4 5 -12 18 -27 28 -32 23 -14 7 -14 -21 0 -21 10
-22 10 -2 -6 17 -14 18 -18 6 -38 -12 -19 -12 -20 0 -10 12 10 15 8 15 -7 0
-10 -4 -17 -7 -14 -4 2 -11 -1 -15 -7 -5 -8 -3 -9 6 -4 9 6 12 -1 8 -28 -3
-31 -2 -34 11 -24 12 10 14 9 8 -7 -5 -13 -3 -17 6 -13 8 3 14 -1 14 -8 0 -10
-5 -11 -16 -6 -10 6 -21 4 -30 -6 -12 -13 -11 -14 7 -9 12 4 23 2 28 -5 4 -8
3 -9 -4 -5 -8 5 -11 0 -8 -16 2 -13 -2 -29 -8 -37 -9 -12 -8 -13 3 -6 11 6 13
4 8 -8 -4 -11 3 -26 21 -43 15 -15 21 -23 15 -20 -7 4 -13 2 -13 -4 0 -7 -7
-9 -16 -6 -13 5 -14 3 -7 -6 5 -7 9 -27 8 -45 0 -17 3 -29 7 -27 5 3 6 16 4
29 -3 14 -1 27 3 30 10 5 8 -56 -2 -72 -5 -7 3 -18 19 -26 22 -12 24 -15 10
-20 -12 -5 -15 -3 -10 6 4 6 4 9 -1 5 -4 -4 -15 -2 -24 4 -12 10 -12 8 1 -8
14 -16 15 -23 5 -33 -6 -7 -7 -12 -2 -11 22 5 27 -1 15 -15 -10 -12 -9 -16 4
-21 9 -3 13 -11 9 -18 -3 -6 -2 -7 2 -3 17 15 14 36 -3 30 -14 -5 -15 -3 -5 7
10 11 15 11 28 0 11 -9 13 -16 5 -24 -15 -15 -13 -39 3 -30 7 5 7 2 -2 -10 -8
-9 -10 -16 -4 -14 6 2 10 -1 9 -7 0 -5 -8 -9 -16 -8 -10 2 -11 0 -2 -3 6 -3 9
-11 5 -17 -4 -6 -1 -8 9 -5 16 7 19 -25 3 -39 -4 -5 -5 -3 -1 4 3 6 3 14 -2
17 -4 2 -8 -6 -8 -19 0 -13 2 -23 6 -23 17 1 20 -4 11 -20 -7 -14 -6 -18 9
-18 14 0 16 3 8 13 -6 7 -7 13 -3 13 4 0 2 7 -5 15 -9 10 -9 15 -1 15 6 0 12
-4 12 -10 3 -20 4 -25 12 -37 10 -15 -2 -45 -16 -36 -6 3 -7 1 -3 -6 6 -9 11
-9 21 -1 20 16 26 -3 10 -33 -8 -16 -10 -29 -4 -33 5 -3 6 -11 2 -17 -4 -7 -1
-7 10 1 14 12 16 11 14 -7 -1 -15 -6 -20 -17 -16 -12 5 -12 4 -3 -6 9 -9 16
-9 25 -1 10 8 18 8 28 0 13 -8 12 -9 -2 -5 -17 6 -33 -29 -17 -38 4 -3 5 -13
2 -23 -5 -14 -3 -14 9 2 12 15 17 16 23 6 5 -9 4 -11 -3 -6 -8 5 -12 -2 -12
-18 0 -14 4 -26 8 -26 11 0 9 -31 -3 -50 -7 -12 -6 -13 7 -3 8 7 19 9 24 5 4
-4 2 1 -5 11 -7 9 -9 17 -5 17 5 0 15 -9 22 -21 8 -12 9 -18 3 -14 -6 3 -11 1
-11 -4 0 -6 5 -11 10 -11 6 0 9 -3 9 -7 -3 -18 2 -31 21 -53 11 -12 17 -26 15
-31 -3 -4 5 -15 17 -25 15 -11 17 -14 6 -11 -10 4 -18 2 -18 -3 0 -6 5 -10 11
-10 5 0 7 -4 4 -10 -3 -5 -2 -10 4 -10 6 0 8 -7 5 -15 -4 -8 -11 -12 -17 -8
-6 3 -7 1 -3 -6 6 -8 12 -9 20 -2 9 8 17 2 29 -24 15 -32 15 -35 -1 -44 -17
-10 -14 -12 26 -15 35 -3 45 -16 26 -37 -9 -11 -14 -22 -11 -26 4 -3 7 -1 7 5
0 7 8 12 18 11 10 0 12 -3 5 -6 -9 -3 -10 -10 -4 -21 5 -9 7 -24 6 -32 -2 -10
6 -17 19 -18 16 -1 18 1 6 8 -8 5 -10 10 -4 10 13 0 34 -21 34 -35 0 -5 -5 -3
-10 5 -8 13 -10 13 -10 -1 0 -9 10 -21 23 -28 22 -11 22 -11 -3 -6 -24 6 -24
5 3 -10 15 -9 25 -21 21 -26 -4 -7 2 -7 17 1 l24 11 -22 -19 c-18 -16 -20 -21
-8 -26 8 -3 17 -1 20 4 4 6 12 10 18 9 9 0 9 -2 0 -6 -7 -2 -13 -9 -13 -15 0
-6 -8 -17 -17 -25 -16 -13 -15 -13 6 -3 19 10 25 9 32 -1 5 -8 7 -19 5 -26 -3
-6 5 -19 16 -30 12 -10 18 -12 14 -5 -4 6 -2 12 3 12 6 0 11 -4 11 -10 0 -19
2 -25 11 -37 7 -7 6 -12 -3 -15 -8 -3 -6 -7 6 -11 9 -4 15 -3 12 2 -3 5 5 9
19 9 23 0 23 -1 7 -17 -10 -9 -16 -15 -13 -14 2 2 14 -9 27 -22 24 -26 41 -34
28 -13 -4 7 -3 8 4 4 6 -4 8 -14 5 -23 -5 -12 -3 -14 6 -8 10 6 11 2 6 -16 -4
-16 -3 -20 3 -11 7 11 10 11 15 -2 4 -9 1 -16 -5 -16 -6 0 -8 -3 -4 -7 4 -5
15 1 23 12 14 18 15 18 9 1 -3 -10 -2 -24 3 -30 5 -6 10 -14 10 -18 4 -24 14
-39 21 -29 5 8 13 9 31 1 19 -8 20 -10 3 -7 -12 3 -21 -1 -21 -8 0 -6 11 -11
23 -9 17 1 21 -2 17 -14 -5 -11 -2 -14 10 -9 19 7 33 -8 16 -19 -8 -4 -9 -3
-5 4 5 8 1 10 -9 5 -23 -8 -1 -21 31 -17 13 1 22 -2 19 -6 -3 -5 -1 -12 5 -15
8 -5 8 -11 1 -19 -8 -9 -7 -13 4 -13 8 0 15 4 15 9 0 4 4 8 8 8 5 0 9 -7 9
-15 0 -8 -4 -12 -9 -9 -4 3 -8 0 -8 -5 0 -6 6 -11 13 -11 8 0 7 -4 -3 -10 -9
-6 -10 -10 -3 -10 6 0 15 5 18 10 4 7 14 2 26 -11 20 -23 26 -44 9 -34 -6 4
-7 -1 -3 -11 5 -15 7 -15 15 0 10 17 28 13 28 -7 0 -7 -4 -6 -10 3 -5 8 -10
10 -10 4 0 -19 13 -24 29 -12 9 7 13 8 9 4 -4 -5 -3 -15 4 -23 8 -11 7 -12 -6
-7 -9 3 -16 1 -16 -5 0 -6 3 -10 8 -10 21 4 32 -2 26 -13 -4 -7 -4 -10 1 -6 4
4 14 3 22 -4 20 -16 13 12 -7 30 -13 11 -12 11 7 3 21 -11 24 -25 10 -49 -5
-7 -2 -14 7 -18 9 -3 14 -9 11 -13 -2 -4 3 -8 12 -8 12 0 11 5 -7 19 -17 14
-19 18 -6 18 9 0 16 -5 16 -11 0 -5 4 -8 8 -5 4 2 9 -5 9 -16 2 -25 14 -37 20
-20 4 10 8 8 18 -5 10 -14 11 -21 2 -32 -10 -12 -8 -12 13 -1 21 11 23 11 14
-1 -14 -20 -12 -42 6 -46 9 -3 11 -1 5 4 -13 11 -17 33 -6 33 5 0 13 -9 16
-21 5 -13 12 -18 22 -14 13 4 14 3 3 -10 -10 -12 -10 -15 1 -15 11 0 11 -2 -1
-10 -8 -5 -10 -10 -4 -10 5 0 15 5 21 11 8 8 15 4 27 -12 21 -31 20 -45 -1
-28 -16 12 -17 12 -6 -2 7 -9 9 -20 5 -25 -4 -4 1 -2 11 5 16 13 22 8 17 -14
-1 -5 4 -5 11 2 17 17 55 -3 40 -21 -8 -10 -4 -16 15 -25 14 -6 24 -17 22 -23
-4 -12 52 -68 68 -68 5 0 2 5 -6 11 -13 9 -13 10 0 6 8 -2 14 -10 12 -17 -5
-21 30 -40 48 -27 8 6 5 0 -8 -15 l-23 -25 25 4 c15 3 26 10 26 16 0 6 3 7 6
4 4 -4 1 -13 -6 -22 -10 -12 -9 -15 6 -16 11 -1 22 -1 27 0 4 0 7 -4 7 -10 0
-6 -6 -9 -14 -6 -8 3 -20 -2 -27 -11 -8 -9 -10 -14 -5 -10 5 4 18 3 29 -3 14
-8 18 -8 13 0 -4 6 -2 11 3 11 6 0 11 -7 11 -15 0 -8 5 -15 11 -15 5 0 7 6 3
13 -5 8 -2 8 9 -2 9 -7 17 -19 17 -25 0 -7 -3 -7 -8 -1 -10 14 -52 17 -52 4 0
-5 4 -8 9 -4 5 3 16 -2 24 -10 10 -9 23 -12 34 -8 17 7 17 6 1 -11 -22 -22
-24 -33 -2 -16 8 8 14 9 13 4 -3 -20 2 -28 10 -16 7 11 9 10 14 -3 4 -9 3 -14
-2 -11 -5 3 -12 -1 -15 -10 -9 -24 -7 -31 4 -14 6 10 10 11 10 3 0 -7 7 -13
15 -13 14 0 19 -12 16 -32 0 -5 6 -8 15 -8 9 0 14 -6 11 -12 -2 -7 -10 -12
-16 -10 -7 1 -10 -2 -6 -8 9 -14 35 -13 35 2 0 6 3 8 6 5 9 -9 -16 -38 -27
-31 -5 3 -6 -2 -3 -10 5 -14 8 -14 21 -1 13 13 33 13 33 -1 0 -3 -4 -3 -9 1
-5 3 -12 1 -16 -5 -3 -5 3 -10 14 -10 12 0 21 -5 21 -11 0 -5 -4 -7 -10 -4 -6
4 -7 -1 -3 -11 4 -12 3 -15 -5 -10 -18 11 -14 0 5 -15 10 -8 14 -9 10 -2 -4 6
-3 15 3 18 6 4 10 3 9 -2 -4 -22 2 -34 14 -27 6 4 9 4 5 -1 -4 -4 -3 -17 3
-28 6 -10 7 -17 2 -14 -5 3 -9 -3 -9 -13 0 -13 4 -16 12 -9 8 6 14 5 17 -6 4
-8 3 -14 -1 -14 -22 4 -24 -3 -4 -17 21 -14 22 -41 1 -29 -5 3 -6 -1 -3 -9 3
-9 10 -16 16 -16 5 0 2 -7 -6 -16 -9 -8 -16 -18 -16 -22 0 -3 5 -1 12 6 7 7
17 12 22 12 6 0 6 -4 -1 -8 -7 -4 -14 -19 -15 -32 -2 -14 -6 -27 -10 -30 -4
-3 1 -11 11 -17 14 -9 18 -8 18 3 0 7 -4 11 -8 9 -6 -4 -5 18 1 35 1 3 2 9 1
13 -1 5 3 6 9 2 8 -5 8 -11 1 -19 -14 -16 -4 -26 17 -19 12 4 11 1 -3 -10 -11
-9 -17 -17 -13 -17 4 0 0 -16 -8 -35 -8 -19 -15 -38 -15 -42 -1 -5 -5 -7 -10
-6 -4 2 -6 -4 -3 -12 4 -8 10 -15 16 -15 5 0 6 4 3 10 -4 6 1 7 11 3 14 -5 14
-7 -5 -18 -12 -6 -19 -14 -16 -17 10 -10 14 -49 4 -43 -5 4 -7 10 -4 15 3 5 1
11 -4 14 -5 4 -8 -2 -6 -11 2 -10 4 -27 4 -38 1 -17 3 -17 11 -5 13 20 13 4
-1 -21 -7 -15 -7 -24 2 -35 8 -10 8 -14 0 -14 -6 0 -11 5 -11 10 0 6 -5 10
-10 10 -6 0 -8 -11 -6 -25 3 -13 0 -27 -5 -31 -5 -3 -7 -9 -4 -14 3 -4 -2 -13
-10 -20 -8 -7 -12 -17 -8 -23 3 -6 1 -7 -5 -3 -8 5 -11 -2 -8 -23 2 -17 -1
-28 -6 -25 -5 3 -7 13 -3 22 3 9 3 13 -1 9 -4 -4 -14 -1 -22 6 -13 11 -14 9
-1 -11 11 -18 12 -24 1 -31 -7 -4 -11 -19 -9 -32 2 -13 2 -19 0 -12 -6 17 -30
23 -30 7 0 -7 5 -10 11 -7 6 4 5 0 -1 -9 -7 -8 -12 -17 -10 -19 1 -2 -3 2 -10
10 -10 11 -12 8 -8 -18 2 -17 0 -29 -5 -26 -5 3 -16 -8 -25 -25 -8 -16 -18
-30 -21 -30 -2 0 1 10 7 23 11 20 11 21 -4 8 -10 -7 -17 -20 -17 -27 0 -17
-12 -18 -30 -1 -9 8 -8 3 3 -14 15 -25 15 -27 -1 -25 -9 0 -16 -5 -15 -11 2
-7 -3 -12 -10 -10 -6 1 -11 -4 -9 -12 3 -12 0 -12 -12 -1 -9 7 -16 9 -16 4 0
-5 -5 -2 -11 6 -8 12 -10 9 -6 -12 2 -15 0 -25 -4 -22 -5 3 -9 1 -9 -3 0 -5
-20 -8 -44 -8 -39 1 -44 -2 -41 -21 1 -11 5 -27 10 -35 4 -8 -4 -2 -18 14 -20
23 -26 25 -31 12 -3 -9 -11 -13 -17 -9 -8 4 -9 3 -5 -5 4 -6 12 -8 18 -5 7 4
8 2 4 -5 -4 -6 -13 -11 -19 -10 -7 1 -21 1 -32 0 -17 -1 -18 -3 -5 -11 9 -6
10 -10 3 -10 -6 0 -15 5 -18 10 -4 7 -13 6 -27 -1 -18 -10 -19 -8 -13 13 4 15
3 19 -3 10 -5 -7 -22 -14 -38 -16 -16 -1 -34 -4 -39 -8 -10 -5 -25 -4 -55 4
-8 3 -12 3 -7 1 4 -3 5 -8 2 -12 -2 -5 6 -7 20 -6 13 2 26 -3 29 -11 4 -11 2
-13 -11 -6 -9 5 -24 7 -34 5 -11 -3 -19 -1 -19 5 0 12 -33 25 -67 27 -17 2
-20 -1 -12 -11 7 -8 6 -14 -2 -20 -7 -4 -9 -3 -6 3 4 6 0 14 -9 17 -8 3 -13
10 -10 14 3 5 -1 9 -9 9 -13 0 -12 -4 1 -26 17 -25 17 -26 -2 -10 -10 9 -25
14 -31 12 -7 -3 -13 0 -13 7 0 6 6 8 13 4 7 -4 9 -3 4 2 -5 5 -12 9 -15 9 -4
0 -13 4 -19 8 -7 5 -13 5 -13 0 0 -4 -5 -1 -10 7 -8 13 -10 13 -10 -2 0 -9 -4
-20 -10 -23 -5 -3 -7 0 -4 8 3 8 1 18 -5 22 -6 3 -11 -1 -11 -9 0 -13 -4 -12
-20 4 -11 11 -25 20 -31 20 -5 0 -7 6 -3 13 4 6 4 9 -1 5 -4 -4 -14 -3 -21 3
-8 7 -14 7 -19 -1 -4 -7 -13 -6 -28 2 -12 7 -26 11 -30 10 -4 -1 -3 7 4 19 8
15 8 19 0 15 -10 -7 -16 7 -12 28 1 5 -4 4 -12 -2 -8 -7 -18 -8 -22 -4 -5 4
-5 1 -1 -6 4 -7 12 -10 17 -7 5 3 6 -2 2 -11 -5 -13 -3 -15 7 -9 9 6 11 4 5
-5 -7 -11 -12 -8 -24 10 -9 14 -24 33 -34 43 -10 10 -15 22 -12 28 4 5 1 8 -7
7 -7 -2 -12 3 -10 10 1 8 -1 11 -6 8 -4 -3 -21 6 -36 19 -16 14 -33 22 -38 19
-6 -4 -5 3 1 15 8 15 9 21 1 21 -6 0 -9 4 -5 9 3 5 0 13 -6 17 -8 4 -9 3 -5
-4 4 -7 2 -12 -5 -12 -7 0 -9 8 -6 21 5 17 3 18 -11 7 -13 -11 -14 -11 -7 1 6
11 4 13 -7 9 -8 -4 -15 -1 -15 7 0 7 7 11 15 8 12 -5 12 -2 3 15 -7 12 -14 22
-17 22 -3 0 -2 -6 2 -12 6 -10 4 -10 -8 0 -16 13 -17 40 -3 62 10 16 -24 23
-43 9 -9 -7 -6 0 8 15 18 21 20 28 8 23 -12 -4 -15 -2 -11 8 3 8 10 12 16 8 6
-3 7 -1 3 6 -6 9 -11 9 -21 1 -10 -8 -15 -8 -21 1 -4 7 -3 9 3 6 6 -4 13 0 17
8 3 8 0 15 -6 15 -6 0 -8 11 -5 30 7 30 -16 66 -34 55 -5 -4 -9 -1 -9 5 0 7 7
9 16 6 8 -3 12 -2 9 3 -3 5 -1 12 5 16 5 3 10 12 10 18 0 8 -3 8 -9 -1 -7 -11
-9 -11 -14 2 -3 8 -1 17 6 20 8 3 8 5 1 5 -7 1 -9 12 -6 27 4 21 2 25 -9 19
-12 -8 -12 -6 -1 8 8 9 10 22 6 28 -5 8 -2 10 7 5 8 -4 5 0 -5 8 -13 10 -15
16 -7 16 11 0 11 3 0 18 -13 15 -12 16 3 3 10 -7 16 -17 13 -20 -2 -4 2 -8 10
-8 10 0 12 4 5 12 -5 7 -7 15 -3 18 3 4 1 7 -5 7 -7 0 -12 4 -12 9 0 11 19 9
39 -3 11 -7 12 -6 5 5 -12 20 -14 38 -3 45 5 3 9 11 9 17 0 7 -4 6 -10 -3 -6
-10 -8 2 -5 35 2 28 5 52 6 55 1 3 1 8 0 13 0 4 4 7 10 7 5 0 7 5 3 11 -9 15
17 30 32 18 8 -7 15 -6 20 2 4 7 3 9 -4 5 -6 -3 -14 -1 -18 5 -3 6 0 15 7 20
10 6 11 9 2 9 -7 0 -13 7 -13 15 0 20 10 19 27 -2 13 -17 13 -16 4 3 -5 11 -7
35 -5 53 4 26 3 31 -8 25 -10 -6 -10 -4 1 9 7 9 18 14 25 10 7 -4 7 -1 -1 7
-10 11 -15 11 -30 -1 -17 -13 -17 -13 0 7 9 11 14 25 10 29 -5 5 -1 4 9 -3 12
-10 18 -10 24 -1 4 8 3 9 -4 5 -7 -4 -12 -2 -12 3 0 6 7 11 15 11 8 0 15 3 16
8 0 4 2 15 4 25 3 15 1 16 -11 6 -7 -6 -11 -15 -8 -20 3 -5 0 -9 -5 -9 -15 0
-14 6 5 35 9 14 21 22 27 18 6 -3 7 -1 3 6 -4 6 -11 9 -16 6 -5 -3 -12 0 -16
6 -5 8 -3 9 5 4 9 -5 12 -1 11 11 -4 32 0 44 11 44 8 0 7 -5 -1 -15 -11 -13
-10 -14 4 -9 10 4 15 13 12 21 -3 7 1 16 9 20 13 5 13 7 -2 19 -17 14 -17 14
2 12 16 -2 19 2 17 20 -2 13 4 35 13 49 10 14 12 22 4 18 -9 -6 -11 -2 -7 13
4 12 2 20 -2 17 -5 -3 -12 -1 -15 5 -4 6 -3 10 2 9 30 -5 35 1 19 26 -14 21
-14 24 -1 19 8 -4 15 -1 15 5 0 6 -5 11 -12 11 -6 0 -4 6 7 13 11 9 15 19 10
27 -5 9 -4 11 3 6 7 -4 12 -2 12 4 0 6 4 9 9 6 11 -7 9 13 -3 33 -7 11 -5 13
8 8 14 -5 15 -3 6 13 -13 25 -3 50 18 43 9 -3 6 3 -8 13 -14 10 -28 18 -32 17
-3 -1 -11 3 -17 11 -8 9 -7 13 4 13 8 0 11 -5 8 -10 -3 -6 -1 -7 5 -3 6 3 13
2 17 -4 4 -6 11 -7 17 -4 6 4 8 3 5 -3 -3 -5 0 -10 7 -10 8 0 12 7 9 14 -3 8
-12 12 -20 9 -7 -3 -16 1 -19 9 -6 15 -29 16 -51 2 -8 -5 -13 -3 -13 5 0 8 -5
6 -11 -5 -5 -9 -15 -17 -22 -17 -7 0 -6 4 3 10 8 5 11 12 7 16 -3 4 -13 1 -22
-6 -8 -7 -15 -8 -15 -3 0 5 -7 10 -15 10 -11 0 -12 -4 -3 -14 8 -11 7 -12 -6
-7 -9 3 -16 11 -16 18 0 6 -5 3 -11 -6 -5 -10 -15 -18 -22 -18 -8 0 -8 3 -2 8
6 4 11 14 13 22 1 9 -6 6 -18 -9 -11 -13 -20 -18 -20 -12 0 6 -6 10 -12 8 -7
-1 -12 4 -10 11 1 8 -2 11 -8 7 -6 -3 -8 -11 -5 -16 4 -5 1 -9 -4 -9 -6 0 -11
5 -11 10 0 6 -4 10 -10 10 -5 0 -7 -7 -4 -15 4 -8 1 -15 -5 -15 -6 0 -11 7
-11 15 0 8 -5 15 -11 15 -5 0 -8 -4 -4 -9 3 -5 1 -13 -5 -16 -6 -4 -9 -3 -8 2
2 4 -2 8 -7 8 -6 0 -9 -6 -7 -15 1 -8 -4 -4 -12 10 -9 14 -15 20 -16 14 0 -7
-7 -15 -16 -18 -14 -5 -15 -4 -5 8 10 12 9 15 -8 13 -11 0 -18 -4 -15 -8 2 -3
-7 -6 -21 -6 -13 0 -26 6 -29 13 -3 8 -11 14 -18 14 -8 0 -9 -3 -3 -8 6 -4 11
-13 13 -20 1 -9 -5 -8 -22 3 -18 12 -26 13 -31 4 -6 -8 -10 -8 -17 2 -7 10 -8
8 -5 -9 3 -12 1 -20 -4 -16 -5 3 -9 12 -9 20 0 17 -12 18 -28 2 -7 -7 -12 -8
-12 -2 0 6 -7 11 -15 11 -11 0 -12 -4 -3 -14 8 -11 7 -12 -6 -7 -9 3 -16 11
-16 18 0 6 -5 3 -11 -6 -5 -10 -15 -18 -22 -18 -8 0 -8 3 -2 8 6 4 11 14 13
22 1 9 -6 6 -18 -9 -11 -13 -20 -18 -20 -12 0 6 -6 10 -12 8 -7 -1 -12 4 -10
11 1 8 -2 11 -8 7 -6 -3 -8 -11 -5 -16 4 -5 1 -9 -4 -9 -6 0 -11 5 -11 10 0 6
-4 10 -10 10 -5 0 -7 -7 -4 -15 4 -8 1 -15 -5 -15 -6 0 -11 7 -11 15 0 8 -5
15 -11 15 -5 0 -8 -4 -4 -9 3 -5 1 -13 -5 -16 -6 -4 -9 -3 -8 2 2 4 -1 8 -7 8
-5 0 -9 -6 -7 -15 1 -8 -4 -4 -12 10 -9 14 -15 20 -16 14 0 -7 -7 -15 -16 -18
-14 -5 -15 -4 -5 8 10 12 9 15 -8 13 -11 0 -18 -4 -15 -8 2 -3 -8 -7 -21 -6
-14 0 -25 3 -25 7 0 4 -7 10 -15 14 -13 5 -14 2 -4 -15 6 -13 7 -19 1 -15 -6
3 -12 3 -15 -1 -2 -5 -2 -3 -1 4 4 16 -21 24 -35 10 -8 -8 -11 -7 -11 3 -1 11
-3 11 -11 -2 -5 -10 -15 -18 -22 -18 -7 0 -6 4 3 10 8 5 11 12 7 16 -3 4 -13
1 -22 -6 -8 -7 -15 -8 -15 -3 0 5 -7 10 -15 10 -11 0 -12 -4 -3 -14 8 -11 7
-12 -6 -7 -9 3 -16 11 -16 18 0 6 -5 3 -11 -6 -5 -10 -15 -18 -22 -18 -8 0 -8
3 -2 8 6 4 11 14 13 22 1 9 -6 6 -18 -9 -11 -13 -20 -18 -20 -12 0 6 -6 10
-12 8 -7 -1 -12 4 -10 11 1 8 -2 11 -8 7 -6 -3 -8 -11 -5 -16 4 -5 1 -9 -4 -9
-6 0 -11 5 -11 10 0 6 -4 10 -10 10 -5 0 -7 -7 -4 -15 4 -8 1 -15 -5 -15 -6 0
-11 7 -11 15 0 8 -5 15 -11 15 -5 0 -8 -4 -4 -9 3 -5 1 -13 -5 -16 -6 -4 -9
-3 -8 2 2 4 -1 8 -7 8 -5 0 -9 -7 -7 -15 1 -8 -4 -4 -12 10 -9 14 -15 20 -16
14 0 -7 -7 -15 -16 -18 -14 -5 -15 -4 -5 8 10 12 9 15 -8 13 -11 0 -18 -4 -15
-8 2 -4 -5 -7 -16 -6 -11 1 -20 5 -20 10 0 4 -5 5 -11 2 -7 -5 -6 -12 3 -24 7
-9 3 -6 -10 7 -12 13 -22 18 -22 13 0 -6 -5 -11 -11 -11 -5 0 -7 5 -4 10 7 11
-35 7 -54 -4 -5 -4 -12 0 -14 6 -3 7 -6 2 -6 -11 -1 -21 -3 -22 -18 -10 -15
11 -16 11 -5 -1 15 -17 16 -34 1 -24 -8 4 -8 0 0 -15 7 -11 9 -21 5 -21 -3 0
0 -8 7 -17 8 -9 9 -14 4 -11 -6 4 -21 0 -35 -9 -14 -8 -18 -12 -9 -10 9 3 22
1 30 -4 11 -7 11 -9 1 -9 -7 0 -10 -5 -7 -10 4 -6 1 -9 -6 -8 -7 2 -13 -2 -14
-9 0 -20 -11 -23 -12 -3 -1 11 3 20 9 20 6 0 9 2 6 5 -3 3 -13 3 -22 -1 -13
-5 -14 -9 -5 -20 9 -11 8 -14 -1 -14 -7 0 -2 -9 11 -21 13 -11 19 -18 12 -15
-6 4 -13 3 -16 -1 -2 -5 -2 -1 0 7 3 12 2 12 -8 3 -9 -10 -10 -15 0 -27 9 -11
9 -16 0 -22 -8 -5 -9 -3 -4 6 6 9 4 11 -5 5 -10 -6 -7 -12 11 -27 18 -14 20
-17 5 -11 -15 5 -17 3 -12 -8 4 -8 0 -5 -8 5 -20 25 -21 8 -1 -20 13 -20 13
-21 -10 -19 -24 3 -26 -5 -9 -50 6 -16 3 -16 -15 5 -12 14 -19 18 -14 10 4 -8
8 -25 8 -38 0 -13 7 -28 15 -34 13 -8 12 -9 -2 -5 -9 3 -19 -1 -22 -9 -4 -10
-2 -12 6 -8 6 4 8 3 4 -4 -3 -5 0 -13 6 -15 7 -3 -2 -4 -20 -2 -27 3 -31 1
-22 -10 6 -8 18 -11 26 -8 8 3 14 1 14 -5 0 -6 -11 -9 -24 -8 -22 3 -23 0 -16
-25 6 -20 5 -26 -4 -23 -7 3 -12 -5 -13 -18 -2 -18 0 -20 7 -8 8 12 9 10 7 -7
-2 -12 -7 -26 -12 -30 -4 -5 -5 -2 0 6 6 10 4 12 -4 7 -9 -6 -8 -13 3 -31 15
-22 14 -23 -9 -20 -20 2 -23 0 -14 -11 6 -8 15 -12 19 -9 5 3 12 0 16 -6 4 -7
3 -10 -2 -6 -5 3 -20 -1 -34 -10 -14 -8 -18 -12 -9 -10 9 3 22 1 30 -5 11 -8
10 -9 -5 -4 -14 5 -17 2 -12 -9 4 -11 2 -14 -7 -8 -22 13 -35 11 -32 -6 1 -9
10 -15 20 -13 10 2 14 -1 10 -7 -3 -6 -13 -11 -21 -11 -8 0 -14 -5 -14 -11 0
-6 8 -8 17 -5 15 5 15 4 -1 -9 -11 -8 -17 -15 -13 -15 4 0 2 -11 -3 -25 -11
-29 -3 -58 14 -48 6 3 3 -3 -7 -14 -9 -11 -14 -24 -10 -28 5 -5 1 -4 -9 3 -14
11 -17 10 -24 -10 -4 -13 -6 -25 -5 -27 2 -2 -3 -8 -11 -13 -11 -8 -10 -9 1
-6 8 2 15 12 17 22 1 10 5 21 8 24 4 3 5 -4 3 -16 -2 -12 -6 -25 -10 -28 -12
-12 -8 -26 6 -18 8 5 7 2 -2 -9 -8 -10 -11 -20 -8 -24 4 -3 2 -13 -5 -20 -9
-11 -9 -16 3 -23 10 -7 8 -9 -8 -7 -21 1 -22 3 -8 24 10 15 12 23 4 23 -8 0
-8 4 0 14 9 11 9 16 0 22 -7 4 -9 3 -5 -4 3 -6 2 -13 -3 -17 -6 -3 -7 -13 -4
-22 4 -9 2 -14 -3 -11 -5 4 -10 -11 -10 -32 -1 -33 1 -38 17 -35 11 2 17 0 14
-5 -3 -5 -20 -7 -38 -5 -26 3 -28 2 -14 -6 9 -6 15 -15 12 -20 -4 -5 -11 -6
-17 -3 -7 4 -8 2 -4 -5 4 -6 11 -9 16 -6 5 3 12 0 16 -6 4 -7 3 -9 -3 -6 -6 4
-17 -1 -26 -11 -13 -14 -13 -20 -3 -34 7 -10 17 -14 21 -10 5 4 5 1 1 -5 -4
-7 -14 -13 -22 -13 -8 0 -13 -4 -9 -10 3 -5 13 -7 23 -4 16 5 16 5 0 -5 -11
-7 -15 -20 -12 -36 3 -19 1 -23 -11 -19 -8 3 -12 11 -8 18 10 15 13 40 5 31
-4 -4 -7 -12 -7 -18 -1 -7 -7 -11 -15 -9 -11 3 -11 0 0 -12 11 -15 7 -20 -12
-17 -5 0 -8 -4 -8 -10 0 -6 6 -9 13 -6 21 8 39 -29 22 -43 -12 -10 -13 -8 -10
10 2 13 1 20 -2 16 -10 -10 -11 -56 -2 -50 5 3 6 -2 3 -11 -4 -8 0 -23 7 -32
10 -12 10 -15 2 -9 -7 4 -13 3 -13 -3 0 -5 -8 -12 -17 -14 -17 -4 -17 -5 0 -6
20 -1 23 -17 5 -24 -10 -4 -10 -6 0 -6 6 -1 12 -6 12 -12 0 -5 -6 -7 -12 -3
-8 5 -7 0 2 -11 9 -11 10 -16 3 -11 -7 4 -13 3 -13 -2 0 -6 7 -12 15 -16 8 -3
15 -11 14 -18 0 -10 -2 -10 -6 0 -2 6 -9 12 -14 12 -6 0 -5 -10 2 -23 12 -22
12 -22 -9 -3 -21 18 -21 18 -9 -7 6 -14 16 -23 22 -19 5 3 3 -3 -5 -13 -9 -11
-10 -16 -2 -11 6 4 12 2 12 -3 0 -6 -6 -11 -14 -11 -8 0 -18 -5 -22 -11 -4 -7
0 -9 14 -5 18 6 20 3 16 -29 -1 -19 -6 -40 -9 -45 -3 -6 -8 -19 -10 -30 -3
-18 -1 -19 18 -8 20 10 21 10 8 -5 -7 -9 -11 -24 -7 -32 3 -9 2 -13 -4 -10 -6
3 -10 0 -10 -8 0 -8 7 -18 16 -21 11 -4 13 -10 6 -19 -5 -6 -7 -24 -5 -39 2
-16 -1 -28 -7 -28 -6 0 -8 5 -4 12 5 7 3 8 -6 3 -10 -6 -10 -11 3 -20 17 -12
25 -41 9 -31 -4 2 -9 -4 -9 -15 -1 -10 3 -19 8 -19 6 0 8 4 5 8 -3 5 2 9 10 9
11 0 9 -6 -7 -23 -15 -16 -17 -24 -9 -29 9 -6 9 -10 -1 -16 -11 -7 -11 -9 -1
-9 7 0 10 -5 6 -12 -5 -7 -3 -8 6 -3 8 5 11 3 8 -6 -3 -8 -11 -13 -18 -11 -9
2 -8 -4 3 -21 12 -19 13 -27 4 -37 -9 -10 -9 -11 0 -6 14 8 27 -10 13 -19 -5
-3 -10 -12 -10 -18 0 -7 5 -4 11 5 14 24 22 22 35 -7 9 -19 9 -28 -3 -44 -13
-19 -12 -20 4 -14 15 5 16 4 7 -8 -20 -24 -5 -109 18 -109 6 0 5 6 -2 15 -7 8
-9 15 -5 15 4 0 3 6 -2 13 -15 18 -12 46 5 40 10 -4 10 -8 2 -13 -12 -8 3 -46
25 -62 6 -5 5 -8 -3 -8 -7 0 -10 -4 -7 -10 3 -5 1 -10 -6 -10 -7 0 -4 -6 6
-14 11 -8 23 -12 27 -10 4 3 5 -2 1 -11 -5 -13 -7 -14 -14 -3 -6 9 -9 9 -9 1
0 -7 8 -17 18 -22 16 -10 16 -10 0 -11 -9 0 -20 -5 -24 -12 -4 -7 -3 -8 4 -4
7 4 12 2 12 -5 0 -8 5 -8 17 2 15 11 16 11 6 0 -14 -16 -6 -44 11 -34 6 4 5
-1 -3 -10 -16 -20 -8 -22 22 -6 22 12 22 12 3 -10 -11 -11 -14 -21 -9 -21 6 0
14 -7 17 -16 5 -13 3 -14 -7 -6 -10 9 -13 5 -12 -19 0 -16 4 -29 8 -29 4 0 10
0 13 0 4 0 1 7 -6 15 -10 12 -10 15 2 15 11 0 15 -10 14 -39 -1 -22 0 -39 4
-39 3 0 14 -1 25 -2 17 -2 17 -3 -5 -10 -25 -8 -25 -8 -2 -9 19 -1 22 -5 17
-21 -5 -16 -3 -19 11 -13 13 5 15 3 8 -8 -10 -16 -15 -44 -7 -35 8 7 33 -13
33 -26 0 -5 -6 -6 -12 -2 -8 5 -7 0 2 -12 26 -33 38 -44 50 -44 6 0 -1 11 -16
23 -19 17 -24 26 -15 31 7 5 10 2 9 -6 -2 -7 3 -12 10 -10 8 1 11 -2 8 -7 -3
-5 1 -12 10 -15 13 -5 14 -9 4 -21 -7 -8 -8 -15 -3 -15 5 0 15 -12 22 -27 10
-26 10 -27 -4 -9 -8 11 -15 15 -15 9 0 -7 5 -15 10 -18 6 -4 8 -10 5 -14 -2
-5 7 -7 20 -5 14 1 28 -3 32 -8 3 -7 1 -8 -5 -4 -7 4 -12 1 -12 -9 0 -9 4 -14
9 -11 5 3 11 -3 14 -14 4 -14 11 -18 24 -14 15 5 15 4 3 -5 -12 -8 -13 -14 -3
-29 7 -12 8 -23 2 -29 -8 -8 12 -13 63 -16 12 -1 14 -5 7 -13 -7 -8 -6 -14 1
-19 8 -5 8 -10 0 -20 -8 -9 -8 -15 0 -20 6 -3 8 -10 5 -15 -6 -10 21 -7 31 3
11 10 24 8 24 -4 0 -5 -4 -8 -9 -5 -5 3 -11 0 -14 -7 -3 -7 3 -14 14 -15 11
-1 25 -2 32 -3 7 -1 14 -13 15 -26 3 -45 5 -49 24 -50 11 -1 16 3 12 9 -4 7
-2 8 5 4 9 -6 9 -11 -1 -24 -11 -13 -10 -15 5 -9 11 4 17 1 17 -9 0 -9 -5 -12
-12 -8 -6 4 -8 3 -5 -3 4 -6 18 -9 33 -7 14 1 23 -1 19 -4 -4 -4 -11 -7 -16
-7 -5 0 -9 -3 -9 -7 0 -5 0 -10 0 -13 0 -3 10 -1 22 6 18 10 20 9 14 -6 -4
-12 -2 -16 8 -12 8 3 20 -2 28 -11 9 -11 10 -14 1 -8 -7 4 -13 2 -13 -3 0 -15
27 -14 32 1 3 7 7 5 11 -6 4 -10 3 -15 -3 -11 -6 3 -10 1 -10 -4 0 -6 5 -11
11 -11 7 0 9 -9 6 -21 -4 -15 -2 -18 7 -10 13 11 57 11 50 0 -2 -5 6 -17 18
-28 17 -16 24 -18 31 -9 6 9 7 8 3 -4 -3 -10 -1 -20 4 -23 6 -4 10 -1 10 5 0
6 5 8 11 4 8 -4 7 -9 -2 -15 -7 -4 -16 -6 -20 -3 -4 2 -11 -1 -15 -7 -4 -7 -3
-9 4 -5 6 3 19 -2 29 -13 10 -10 29 -17 43 -16 30 3 42 -3 34 -16 -4 -6 -10
-6 -18 0 -9 8 -13 7 -13 -2 0 -7 12 -14 26 -15 14 -1 28 -7 29 -13 3 -6 10 -5
19 3 14 11 15 10 9 -10 -5 -13 -3 -22 3 -22 6 0 11 5 11 12 0 6 3 8 6 5 4 -4
1 -13 -6 -22 -14 -17 -7 -19 19 -6 10 6 23 6 32 0 10 -6 10 -9 2 -10 -28 -3
-32 -4 -40 -13 -5 -5 -3 -6 5 -2 6 4 12 2 12 -4 0 -6 5 -8 13 -3 6 4 21 9 32
10 16 2 17 1 5 -6 -8 -5 -18 -7 -24 -4 -5 3 -6 1 -2 -5 4 -6 13 -9 20 -6 21 8
30 -14 14 -34 -11 -15 -11 -15 3 -5 12 10 18 10 27 1 7 -7 12 -8 12 -4 0 5 7
3 15 -4 13 -11 14 -10 9 4 -3 9 -2 16 3 16 5 0 10 -6 11 -12 2 -27 8 -48 17
-55 4 -4 5 -3 2 3 -4 7 0 14 8 18 14 5 20 -5 16 -27 -1 -5 3 -6 9 -2 6 3 8 10
5 15 -3 5 0 12 6 16 7 4 9 3 5 -4 -3 -5 0 -13 6 -15 10 -4 10 -8 -1 -15 -8 -6
-9 -12 -3 -16 5 -3 13 1 16 10 5 12 10 14 20 5 7 -6 17 -7 21 -3 5 4 5 2 2 -4
-4 -7 0 -18 9 -25 13 -10 17 -10 25 2 6 10 9 11 9 1 0 -7 5 -10 12 -6 6 4 17
-1 25 -11 7 -11 13 -13 13 -7 0 7 5 12 11 12 8 0 7 -5 -1 -15 -10 -12 -10 -19
-2 -27 9 -9 12 -7 12 7 0 18 0 18 16 -1 8 -10 12 -13 9 -6 -6 11 -3 12 14 3
11 -7 21 -14 21 -17 0 -3 -4 -2 -10 1 -6 3 -7 -1 -4 -10 6 -14 8 -14 21 2 13
16 14 15 9 -12 -3 -16 -3 -24 0 -17 5 10 9 10 22 0 9 -7 13 -8 9 -2 -4 7 2 14
14 17 17 5 18 3 7 -11 -10 -12 -10 -14 0 -8 7 4 12 2 12 -6 0 -9 3 -10 8 -2 4
6 14 10 23 9 24 -4 59 -37 52 -49 -3 -6 -3 -8 2 -4 4 4 15 2 24 -4 9 -7 3 2
-12 19 -23 24 -25 32 -13 36 10 4 13 1 10 -8 -4 -9 4 -19 20 -26 14 -7 26 -17
26 -23 0 -5 6 -1 14 10 12 16 17 17 28 6 11 -11 10 -12 -4 -7 -11 5 -18 2 -18
-6 0 -7 3 -10 6 -6 4 3 21 -1 38 -9 28 -14 29 -14 12 1 -17 12 -18 17 -6 28 9
8 11 9 6 0 -4 -7 2 -17 14 -23 11 -6 18 -15 15 -20 -4 -6 1 -7 11 -3 13 5 15
3 9 -8 -4 -8 -5 -11 0 -7 4 4 14 3 22 -3 8 -7 13 -8 13 -1 0 5 -7 12 -15 16
-8 3 -15 11 -15 18 0 10 2 10 9 -1 5 -8 14 -10 21 -6 8 5 11 4 7 -2 -4 -6 3
-19 15 -29 12 -11 18 -13 13 -5 -6 11 -4 13 8 8 10 -4 17 -1 18 6 0 7 4 3 9
-8 7 -16 9 -17 9 -3 1 9 6 20 11 23 6 4 10 3 9 -2 -4 -24 3 -31 26 -27 14 2
35 -1 48 -7 19 -11 20 -10 10 2 -10 12 -8 15 7 15 10 0 17 -3 14 -7 -2 -4 3
-10 12 -13 8 -3 12 -11 8 -17 -4 -8 -9 -7 -15 2 -5 8 -9 9 -9 3 0 -18 13 -24
27 -12 7 6 16 8 20 4 4 -3 14 6 24 20 10 16 19 22 23 15 4 -6 2 -11 -5 -11 -7
0 -9 -3 -5 -7 12 -12 60 -11 75 1 12 9 13 8 7 -3 -7 -10 -3 -12 15 -6 18 5 20
4 9 -4 -8 -5 -11 -13 -7 -17 3 -4 13 -1 22 6 15 12 21 4 16 -23 -1 -5 3 -6 9
-2 6 3 8 11 5 16 -4 5 -3 9 2 10 4 0 16 2 26 4 9 2 15 -1 12 -5 -3 -5 -1 -11
4 -14 5 -4 13 -1 17 5 4 8 3 9 -4 5 -8 -5 -10 -2 -6 9 5 13 8 13 18 2 17 -21
46 -29 39 -12 -3 8 -8 13 -12 10 -4 -2 -8 2 -8 10 0 12 3 12 15 3 21 -18 65
-22 57 -6 -4 7 0 6 7 -3 15 -18 65 -22 75 -6 4 6 1 7 -7 2 -9 -5 -11 -4 -6 4
4 6 12 9 17 6 5 -4 9 -1 9 6 0 7 3 10 6 7 3 -4 0 -17 -7 -30 -12 -23 -12 -23
10 -4 13 12 21 14 21 7 0 -7 5 -9 10 -6 6 4 8 10 5 15 -3 4 3 14 13 21 15 12
15 12 5 -1 -9 -12 -8 -20 4 -35 15 -20 15 -20 9 2 -5 17 -3 21 11 19 10 -2 22
2 26 8 6 7 7 6 4 -4 -2 -8 -10 -14 -16 -12 -6 1 -11 -2 -11 -6 0 -5 18 -8 40
-8 22 0 36 3 31 6 -4 3 -5 14 0 25 6 15 8 16 8 4 1 -17 29 -34 39 -24 3 3 0 5
-6 5 -7 0 -12 7 -12 15 0 8 5 15 11 15 5 0 8 -4 5 -8 -2 -4 3 -13 13 -19 14
-9 18 -8 18 3 0 7 -3 11 -7 9 -3 -2 -7 6 -7 17 -2 21 -2 21 13 -1 16 -22 34
-28 34 -10 0 5 -4 8 -8 5 -5 -3 -9 1 -9 9 0 10 5 11 19 4 10 -6 15 -15 12 -21
-5 -7 -2 -8 5 -4 7 5 10 15 7 25 -6 15 -5 15 7 0 10 -13 15 -14 24 -4 10 11
20 10 52 -1 46 -16 67 -11 74 17 4 16 9 18 24 11 10 -5 24 -7 32 -4 8 2 11 0
8 -5 -3 -5 1 -10 9 -10 10 0 11 4 4 11 -18 18 -11 27 13 15 19 -11 21 -11 9 3
-10 13 -10 18 -1 24 7 4 9 3 6 -3 -4 -6 0 -13 8 -17 17 -6 29 9 19 25 -4 7 1
7 16 -1 18 -10 20 -14 9 -21 -9 -6 -10 -9 -2 -9 6 0 15 5 18 10 4 6 10 8 15 5
5 -3 11 -1 15 5 4 6 10 8 15 5 5 -3 7 4 5 15 -2 11 0 18 5 15 5 -3 11 -1 15 5
4 6 10 8 15 5 5 -3 13 2 18 11 8 15 10 15 15 0 5 -11 3 -15 -5 -10 -7 4 -8 3
-4 -5 6 -9 11 -9 21 -1 10 8 14 8 17 -2 3 -8 7 -6 11 6 4 10 3 15 -3 11 -6 -3
-10 -2 -10 3 0 5 14 9 30 10 17 0 28 -4 24 -9 -3 -5 -10 -6 -16 -3 -7 5 -8 2
-3 -5 5 -9 13 -7 29 8 12 12 26 18 31 14 4 -5 5 -2 1 5 -6 10 -11 10 -22 1 -8
-7 -14 -7 -14 -1 0 5 13 15 30 22 18 7 27 17 23 24 -4 6 0 5 9 -2 14 -11 18
-10 28 5 10 16 11 16 6 1 -6 -19 9 -25 19 -8 3 6 18 10 33 11 24 0 25 1 7 8
-11 5 -23 7 -26 5 -3 -2 -6 3 -6 11 0 11 4 12 14 4 7 -6 13 -8 13 -5 0 4 10 1
23 -5 19 -11 20 -10 10 3 -7 8 -10 18 -6 22 4 4 15 -3 24 -16 16 -21 17 -21
16 -3 -2 17 4 20 33 18 19 -1 30 1 23 5 -8 5 -8 13 2 32 8 14 14 21 15 17 0
-5 13 0 29 9 17 10 28 21 26 24 -2 4 2 7 10 7 8 0 11 -5 8 -11 -3 -6 -3 -8 2
-4 4 4 15 2 24 -4 13 -10 14 -10 4 2 -18 20 -16 35 2 20 13 -11 14 -10 10 2
-8 19 30 54 41 37 5 -8 3 -10 -6 -4 -9 5 -11 4 -6 -4 6 -9 11 -9 22 0 15 13
19 23 5 15 -5 -3 -11 0 -14 7 -3 7 5 13 19 13 17 1 21 -2 16 -14 -5 -14 -4
-15 10 -2 14 13 15 17 3 26 -11 8 -10 12 6 22 10 7 21 11 23 10 2 -2 13 6 25
16 16 14 21 16 22 5 0 -8 4 -4 10 9 10 26 46 27 41 1 -3 -12 -1 -12 10 0 10
11 10 14 0 18 -6 3 -10 9 -7 14 4 5 -2 7 -12 4 -10 -3 -3 2 15 10 23 11 32 21
28 31 -4 12 -2 12 14 4 21 -11 24 -8 21 22 -2 17 9 22 38 19 7 -2 10 2 6 8 -5
9 12 15 36 13 3 -1 6 6 6 14 0 10 -4 11 -11 4 -20 -20 -26 -10 -7 12 11 11 18
26 14 31 -3 6 -1 7 6 3 6 -4 9 -11 6 -16 -3 -5 -1 -11 4 -14 5 -4 8 5 6 19 -2
22 0 23 13 13 13 -11 15 -10 9 4 -4 12 0 19 14 23 10 4 19 11 19 16 0 6 -8 5
-21 -1 -11 -7 -23 -9 -26 -7 -2 3 5 8 16 12 12 3 21 12 21 18 0 7 5 6 11 -3 9
-12 10 -11 6 7 -3 15 -1 20 9 16 7 -2 10 -12 8 -21 -4 -12 -1 -10 7 3 17 25
20 45 8 45 -5 0 -9 5 -9 11 0 8 4 8 14 0 9 -7 17 -8 20 -2 3 5 0 12 -6 14 -10
4 -10 6 0 6 7 1 10 6 6 13 -4 7 -3 8 4 4 7 -4 12 -2 12 3 0 6 3 10 8 10 19 -3
30 2 36 17 5 14 4 15 -9 4 -9 -7 -18 -10 -22 -6 -3 3 -1 6 6 6 7 0 9 5 6 10
-4 6 -3 10 2 9 22 -4 44 2 38 11 -3 5 -13 7 -23 4 -15 -5 -15 -5 1 6 9 6 23 8
30 4 7 -5 5 0 -3 11 -14 17 -14 18 10 5 l25 -13 -20 23 -20 23 22 -12 c33 -17
38 -13 12 8 l-24 20 23 -6 c18 -4 21 -2 15 12 -4 13 -3 16 5 11 15 -9 15 -1 1
27 -12 22 -11 22 9 4 15 -14 22 -15 28 -6 4 8 3 10 -4 5 -21 -13 -12 5 15 30
22 20 24 27 13 37 -7 6 -10 7 -7 2 3 -6 -1 -19 -9 -30 -8 -10 -14 -14 -14 -9
0 6 3 14 8 18 4 4 7 13 7 19 1 7 6 11 13 9 16 -3 15 10 0 28 -11 12 -10 12 2
4 19 -13 41 -12 38 1 -1 6 -9 9 -18 7 -11 -2 -10 0 3 8 9 6 23 8 30 4 9 -6 9
-4 -1 8 -14 17 -1 35 17 24 5 -4 8 2 6 11 -1 10 4 25 12 35 11 12 11 18 2 24
-8 5 -10 3 -4 -6 5 -8 4 -11 -3 -6 -5 3 -13 0 -15 -6 -4 -10 -6 -10 -6 -1 -1
7 8 18 18 25 16 10 18 15 8 27 -10 12 -9 13 13 1 14 -7 22 -9 18 -5 -4 5 -3
14 3 21 7 8 7 14 -1 19 -16 10 -12 25 8 25 15 0 15 -2 2 -11 -13 -9 -13 -10 0
-6 8 2 15 14 15 26 0 12 8 28 18 36 16 11 16 13 2 19 -9 3 -13 2 -10 -3 3 -5
1 -12 -4 -16 -6 -3 -8 4 -6 17 3 13 9 24 13 26 5 1 18 10 28 18 10 9 13 13 7
9 -7 -3 -13 -1 -13 5 0 6 -5 8 -12 4 -7 -4 -8 -3 -4 5 4 6 11 9 15 7 4 -3 12
4 19 15 14 21 3 26 -17 7 -10 -11 -11 -10 -6 4 7 17 18 22 38 19 5 -1 5 3 2 9
-4 6 -14 9 -24 6 -14 -5 -13 -4 2 8 9 7 17 26 17 41 0 24 2 26 15 15 13 -11
13 -15 3 -21 -7 -5 -8 -9 -2 -9 17 0 25 12 15 24 -11 15 -21 56 -12 54 12 -2
41 14 41 24 0 5 -4 7 -8 4 -4 -2 -14 0 -22 5 -13 8 -11 13 10 30 14 11 19 18
13 14 -7 -3 -13 -1 -13 5 0 6 -5 8 -12 4 -6 -4 -8 -3 -4 4 3 6 16 9 29 7 20
-4 21 -3 5 9 -18 13 -26 32 -10 22 4 -2 14 0 22 6 12 8 12 9 -2 4 -10 -3 -18
-1 -18 4 0 9 23 15 44 11 5 -1 4 5 -4 13 -13 17 -25 22 -16 8 3 -5 -1 -9 -9
-9 -8 0 -11 5 -7 11 4 6 7 14 7 18 0 3 4 10 9 15 5 4 6 3 3 -3 -4 -7 0 -15 8
-18 12 -4 13 -2 5 13 -5 11 -15 22 -22 25 -7 3 1 4 17 1 17 -2 24 -2 17 1 -6
3 -9 11 -5 17 4 7 0 8 -13 4 -18 -7 -18 -7 0 8 11 8 15 15 10 15 -6 0 -11 7
-11 15 0 11 4 12 14 3 11 -8 12 -7 7 6 -3 9 -10 16 -15 16 -5 0 -9 5 -9 11 0
6 9 8 23 4 22 -7 22 -7 2 9 -13 10 -15 15 -6 16 11 0 11 3 1 15 -11 13 -11 18
0 28 9 9 11 9 6 0 -3 -6 -3 -14 2 -17 11 -6 10 50 -1 60 -4 5 -5 0 -2 -11 5
-15 4 -17 -3 -6 -12 17 -6 37 15 45 11 4 13 2 10 -9 -4 -8 -3 -17 2 -19 11 -7
10 27 -2 42 -5 6 -15 12 -21 12 -6 0 -4 -5 4 -10 12 -8 10 -9 -7 -7 -12 2 -26
7 -30 11 -5 4 -3 6 2 5 22 -7 53 21 48 41 -3 12 2 29 13 42 11 12 13 18 5 13
-11 -6 -12 -2 -7 20 6 25 5 27 -9 15 -8 -7 -18 -10 -22 -6 -3 3 -1 6 5 6 7 0
12 9 12 21 0 11 -4 18 -8 15 -11 -6 -9 40 1 50 13 14 7 26 -7 15 -11 -9 -16
-9 -22 1 -4 7 -4 10 1 6 4 -4 14 -3 22 3 11 10 11 15 1 27 -9 11 -10 14 -1 9
7 -5 16 1 23 12 6 12 6 22 1 25 -11 7 -9 25 3 45 6 9 5 12 -1 8 -6 -4 -14 0
-17 9 -3 8 -10 12 -16 9 -5 -3 -10 -2 -10 3 0 5 9 13 20 18 20 9 20 9 -2 23
-20 13 -22 12 -11 -1 10 -12 10 -15 -1 -15 -8 0 -13 7 -11 16 1 9 11 16 24 15
16 -1 19 2 10 12 -6 7 -16 11 -23 8 -15 -6 -18 26 -3 43 6 9 6 13 -2 13 -6 0
-11 5 -11 11 0 5 4 8 9 4 5 -3 13 -1 16 5 4 6 1 9 -6 8 -7 -2 -13 2 -14 7 0 6
-4 16 -9 23 -5 8 -4 18 3 25 9 9 11 8 6 -5 -5 -11 -2 -18 6 -18 7 0 9 3 6 7
-4 3 -2 12 5 20 9 11 8 13 -3 11 -8 -2 -13 3 -11 10 1 8 -2 11 -8 7 -5 -3 -10
-1 -10 4 0 6 6 11 13 11 8 0 7 4 -3 10 -8 5 -11 10 -6 10 5 0 3 7 -4 15 -7 8
-18 15 -24 15 -6 0 -4 -6 4 -13 17 -13 19 -26 7 -44 -4 -7 0 -16 10 -22 10 -6
13 -11 7 -11 -21 0 -35 25 -22 38 9 9 9 12 -2 12 -7 0 -10 3 -7 7 4 3 2 12 -4
19 -6 8 -7 14 0 18 6 4 8 13 4 21 -3 9 1 23 8 32 12 14 12 16 0 8 -11 -6 -13
-3 -9 12 3 12 1 27 -4 34 -8 11 -9 10 -4 -3 3 -10 2 -19 -2 -22 -4 -3 -9 9
-10 25 -2 22 1 28 10 23 9 -6 9 -3 -1 9 -7 9 -19 17 -25 16 -7 0 -6 -2 2 -6 6
-2 10 -9 7 -14 -4 -5 -12 -3 -19 3 -11 11 -11 15 2 24 12 9 12 13 2 19 -9 6
-11 4 -5 -5 6 -9 4 -11 -4 -5 -9 5 -10 10 -2 18 6 6 11 16 11 22 0 5 -5 3 -11
-5 -9 -12 -10 -11 -6 8 4 15 0 22 -10 22 -12 0 -12 2 1 16 20 20 21 30 1 14
-11 -9 -15 -9 -15 -1 0 7 -5 9 -12 5 -7 -4 -8 -3 -4 5 4 6 12 9 17 6 5 -3 6 1
3 9 -3 8 -11 13 -18 10 -9 -3 -11 4 -8 27 3 20 1 30 -6 26 -5 -4 -12 2 -15 13
-3 12 1 24 10 29 11 6 12 10 4 15 -6 4 -11 2 -11 -3 0 -6 -7 -11 -16 -11 -9 0
-12 -5 -8 -12 5 -7 3 -8 -5 -3 -9 5 -7 13 8 29 16 17 18 23 7 23 -8 0 -12 -5
-9 -11 3 -6 3 -8 -2 -4 -4 4 -15 2 -24 -5 -14 -10 -14 -10 -3 5 8 9 10 23 6
29 -4 7 -3 9 4 5 6 -3 14 -1 18 5 4 8 3 9 -4 5 -7 -4 -12 -3 -12 3 0 6 -6 9
-12 7 -7 -1 -10 -1 -5 2 4 2 12 12 17 22 7 14 6 17 -8 16 -9 0 -16 5 -14 12 1
8 -2 11 -8 7 -8 -5 -6 -13 4 -24 14 -15 14 -18 1 -18 -8 0 -12 4 -9 8 2 4 0
10 -5 14 -6 3 -7 13 -4 22 4 11 3 14 -5 9 -7 -4 -12 -3 -12 3 0 5 6 12 13 14
9 4 9 6 0 6 -7 1 -13 8 -13 17 0 8 -4 12 -10 9 -6 -3 -10 1 -10 10 0 9 4 14 8
11 5 -3 9 1 9 7 0 7 -10 14 -21 15 -17 1 -18 -1 -6 -8 11 -7 11 -10 2 -10 -7
0 -10 -5 -6 -12 4 -6 3 -8 -4 -4 -6 3 -9 17 -6 30 3 19 -1 26 -18 29 -23 4
-23 4 1 6 l24 1 -21 19 c-12 10 -18 22 -14 27 4 4 -1 2 -10 -5 -20 -15 -23 -9
-8 19 7 13 7 21 0 25 -6 4 -7 12 -4 18 4 7 3 8 -1 4 -13 -11 -15 -38 -3 -31 7
5 8 2 4 -5 -5 -7 -11 -10 -14 -6 -9 9 -12 38 -4 50 4 6 0 3 -9 -7 -16 -16 -17
-16 -16 7 0 15 4 22 11 18 6 -3 -1 7 -15 23 -15 16 -24 36 -22 44 4 13 3 13
-6 0 -7 -11 -5 -20 7 -35 17 -20 17 -20 -4 -2 -11 9 -25 14 -29 10 -5 -5 -3 0
5 10 12 16 12 18 -1 15 -8 -1 -14 1 -14 7 0 5 6 9 13 7 6 -2 12 2 12 8 0 6 -4
9 -9 5 -6 -3 -28 12 -51 34 -32 31 -37 40 -25 45 9 3 13 2 10 -4 -3 -6 -1 -10
5 -10 6 0 8 -4 5 -10 -3 -6 1 -7 9 -4 14 5 14 8 1 21 -8 8 -15 20 -15 26 0 8
-3 8 -8 2 -4 -5 -13 -11 -21 -13 -12 -3 -12 -1 -1 15 8 10 11 15 7 12 -13 -11
-66 42 -62 62 3 13 -1 16 -12 12 -20 -8 -35 17 -21 35 9 10 8 16 -2 22 -8 5
-18 6 -22 4 -4 -3 -8 0 -8 6 0 6 -4 8 -10 5 -6 -3 -10 5 -10 19 0 14 -5 28
-12 32 -7 5 -8 2 -3 -7 5 -8 -3 -4 -17 9 -13 12 -28 19 -33 15 -4 -5 -5 -3 -1
4 3 6 2 15 -4 18 -8 5 -7 12 2 23 11 13 11 14 -1 7 -11 -6 -13 -4 -8 7 6 16
-8 19 -29 5 -7 -4 -11 2 -11 18 0 14 4 22 10 18 6 -3 7 -1 3 6 -4 6 -11 9 -16
6 -5 -3 -12 0 -15 6 -4 5 -14 8 -22 4 -13 -4 -13 -3 -4 9 9 11 8 17 -4 30 -24
24 -31 19 -9 -6 19 -23 19 -23 -2 -5 -11 9 -24 14 -28 10 -4 -4 -4 0 -1 10 4
9 0 23 -9 33 -9 8 -14 20 -11 24 3 5 -4 7 -15 5 -11 -2 -20 2 -20 8 0 7 -4 7
-9 -3 -7 -10 -9 -3 -7 22 2 27 0 35 -11 31 -9 -4 -10 -9 -3 -18 7 -8 5 -12 -5
-12 -7 0 -13 5 -12 11 1 5 -5 10 -13 11 -9 0 -14 8 -12 19 2 10 -1 15 -6 12
-5 -3 -8 6 -6 19 1 14 -2 23 -7 19 -5 -3 -6 -11 -2 -17 5 -8 2 -8 -9 0 -8 7
-17 11 -20 8 -2 -3 -5 1 -5 9 0 8 7 12 16 9 12 -4 13 -3 3 5 -8 5 -13 13 -13
18 0 5 -7 9 -16 9 -9 0 -18 6 -21 13 -2 6 -8 12 -14 12 -7 0 -6 -5 1 -14 8
-10 9 -16 1 -21 -6 -4 -9 -1 -8 7 2 7 -4 12 -12 10 -9 -1 -6 6 9 18 20 17 21
20 5 17 -11 -1 -26 -7 -34 -12 -13 -8 -13 -7 0 10 14 17 13 18 -3 12 -10 -4
-16 -3 -12 2 3 5 2 11 -2 14 -5 2 -1 2 7 0 11 -2 10 1 -3 11 -14 11 -15 15 -5
20 7 3 0 3 -15 1 -19 -3 -27 0 -24 8 2 7 -5 22 -16 34 -14 16 -24 20 -37 13
-23 -12 -65 41 -47 60 9 10 7 11 -10 5 -14 -4 -23 -2 -23 4 0 6 -5 10 -12 8
-7 -1 -19 12 -28 29 -9 17 -21 29 -28 26 -7 -2 -12 7 -13 25 -1 17 -3 21 -6
11 -5 -21 -19 -23 -29 -6 -4 7 -3 8 4 4 7 -4 12 -1 12 9 0 9 -4 14 -9 11 -5
-3 -14 0 -20 8 -9 11 -9 15 1 18 8 3 6 7 -6 11 -9 4 -15 3 -12 -2 7 -10 -19
-23 -28 -14 -3 4 -6 15 -6 25 0 10 -5 18 -11 18 -5 0 -7 5 -4 10 4 6 1 9 -7 8
-7 -2 -12 3 -10 10 1 8 -2 11 -7 8 -9 -6 -26 11 -26 26 0 3 -4 10 -9 15 -5 5
-6 3 -2 -5 5 -9 -1 -12 -23 -10 -16 1 -27 6 -25 10 3 4 0 8 -7 8 -7 0 -9 3 -6
6 4 4 13 1 21 -5 11 -9 16 -9 22 0 4 7 3 10 -2 6 -5 -3 -18 2 -29 10 -14 11
-16 17 -7 20 6 3 12 9 12 15 0 7 -5 7 -13 -1 -8 -6 -17 -8 -21 -4 -4 4 -4 -1
-1 -12 4 -15 3 -15 -6 3 -15 28 -29 29 -24 2 2 -11 0 -18 -4 -16 -4 3 -7 21
-6 41 2 20 0 34 -3 31 -3 -3 -10 2 -17 11 -9 13 -14 13 -20 3 -5 -8 -4 -11 2
-7 6 4 13 0 17 -8 7 -18 -8 -20 -22 -2 -10 12 -12 18 -12 37 0 6 -4 10 -9 10
-6 0 -8 -9 -6 -20 2 -11 0 -18 -5 -15 -5 3 -7 17 -4 30 2 14 1 25 -3 24 -20
-3 -34 2 -28 11 3 5 13 7 23 4 14 -5 14 -4 3 4 -8 6 -21 8 -29 4 -10 -3 -13
-1 -8 6 7 12 -10 25 -38 27 -10 1 -24 9 -31 18 -7 9 -15 14 -18 10 -4 -3 -11
7 -17 22 -8 20 -7 32 2 44 12 14 11 14 -4 2 -12 -9 -18 -10 -18 -2 0 6 -5 11
-11 11 -5 0 -8 -4 -5 -8 3 -5 -1 -9 -9 -9 -11 0 -12 4 -4 14 6 7 8 13 4 13 -4
0 -1 8 6 18 13 15 12 16 -3 3 -12 -9 -18 -10 -18 -2 0 6 -5 11 -11 11 -5 0 -8
-4 -5 -8 3 -5 -1 -9 -9 -9 -8 0 -12 4 -9 8 3 5 -4 14 -16 21 -11 7 -20 17 -20
22 0 4 6 3 13 -3 10 -8 14 -7 14 4 0 7 -5 13 -11 12 -6 -1 -10 4 -8 11 1 8 -2
11 -8 7 -9 -6 -14 8 -11 28 1 4 -8 3 -20 -3 -27 -15 -50 3 -31 22 7 7 12 17
12 22 0 6 -5 4 -10 -4 -7 -11 -10 -11 -10 -2 0 7 -4 11 -9 8 -5 -3 -12 1 -15
10 -3 8 -2 12 3 9 5 -3 13 -1 16 5 4 6 1 9 -6 8 -7 -2 -13 3 -14 11 0 8 -11
16 -24 18 -14 2 -30 8 -38 14 -9 9 -13 8 -13 0 0 -7 -5 -9 -11 -5 -8 5 -8 9 1
14 7 4 9 14 5 21 -4 8 3 3 15 -11 18 -21 20 -21 11 -4 -6 12 -7 25 -3 29 4 5
2 5 -5 1 -6 -3 -14 -2 -18 3 -3 6 -13 7 -21 4 -10 -4 -15 -1 -14 8 5 36 0 44
-16 24 -16 -20 -16 -19 -9 4 6 18 4 22 -6 15 -10 -6 -10 -3 1 11 14 16 13 17
-8 11 -17 -6 -22 -3 -22 9 0 10 5 13 13 9 6 -4 4 1 -5 12 -9 10 -17 24 -18 29
-1 6 -8 9 -17 7 -9 -2 -12 1 -8 8 4 7 -2 9 -22 5 -25 -5 -26 -4 -5 4 12 6 22
13 22 16 0 4 -4 4 -10 0 -5 -3 -21 8 -36 24 -15 17 -32 28 -38 24 -6 -3 -5 0
1 7 11 12 15 11 28 -6 8 -10 15 -13 15 -7 0 7 -9 18 -19 25 -16 10 -18 15 -8
27 9 11 9 13 0 8 -7 -4 -16 0 -22 10 -6 10 -11 13 -11 7 0 -6 -7 -11 -15 -11
-8 0 -13 3 -10 5 3 3 -1 12 -8 20 -10 13 -8 14 13 7 22 -7 23 -6 8 8 -9 9 -25
14 -39 11 -19 -4 -18 -2 6 9 25 11 27 14 12 20 -11 4 -16 3 -12 -3 3 -6 -1 -7
-9 -4 -9 3 -13 10 -10 15 3 5 0 9 -6 9 -6 0 -9 4 -6 9 3 4 -3 19 -14 31 -13
15 -18 31 -14 44 3 12 2 17 -3 11 -4 -5 -14 -11 -22 -13 -11 -2 -12 0 -3 11 7
8 9 17 5 20 -3 4 0 7 8 7 8 0 4 6 -9 16 -12 8 -26 13 -31 9 -5 -3 -13 -1 -16
5 -4 6 -1 9 6 8 6 -2 14 3 16 10 3 8 -1 10 -11 6 -19 -7 -21 7 -3 25 10 11 8
11 -13 1 -24 -13 -25 -12 -7 7 17 19 14 33 -7 33 -6 0 -4 -5 4 -10 9 -6 10
-10 3 -10 -20 0 -24 18 -7 34 21 21 6 20 -18 -1 -18 -16 -18 -16 -12 3 4 10
12 22 18 27 6 4 -1 5 -16 3 -19 -3 -25 -1 -22 9 3 7 15 11 27 9 20 -4 20 -3 3
4 -20 9 -26 26 -28 76 l-2 29 -18 -23 c-20 -24 -24 -19 -8 10 7 13 7 21 0 25
-6 4 -9 1 -8 -6 2 -6 -4 -14 -12 -16 -9 -3 -11 -1 -5 4 16 13 15 65 -1 59 -7
-3 -16 0 -20 6 -4 7 -3 8 4 4 7 -4 12 -1 12 8 0 9 -5 16 -12 16 -6 0 -8 3 -5
6 4 4 13 2 20 -4 10 -9 14 -8 14 3 0 7 -3 14 -6 13 -25 -2 -51 4 -51 12 0 6 6
9 13 8 6 -2 10 4 8 12 -2 8 -4 21 -4 27 0 9 -4 10 -13 2 -8 -7 -14 -6 -20 2
-4 7 -3 9 2 6 6 -3 16 3 23 15 7 11 9 18 4 15 -5 -3 -15 -2 -23 4 -12 7 -11 9
5 10 11 0 14 3 7 6 -6 2 -9 10 -5 16 4 7 -1 6 -10 -2 -15 -12 -17 -12 -11 4 5
12 4 16 -4 11 -7 -4 -10 1 -7 14 2 11 -3 26 -11 34 -12 13 -11 16 8 22 13 5
27 7 33 5 5 -1 7 1 2 5 -10 11 -47 13 -41 2 3 -4 0 -8 -5 -8 -12 0 -14 13 -4
24 4 3 7 15 8 26 1 16 -3 19 -19 14 -15 -4 -17 -3 -8 4 8 5 13 12 13 16 -3 20
0 26 12 21 6 -4 -1 6 -18 21 -18 17 -23 25 -12 21 13 -5 17 -3 14 5 -2 7 -9
12 -15 11 -6 -1 -8 7 -4 20 l5 22 -24 -20 -24 -20 17 20 c18 22 14 65 -6 65
-6 0 -4 5 4 10 13 9 13 10 0 10 -9 1 -6 6 10 16 l25 15 -25 -5 -25 -5 23 19
c12 10 22 22 22 26 0 4 -5 3 -12 -4 -7 -7 -19 -12 -27 -11 -11 0 -12 2 -3 6 6
2 9 10 6 15 -4 7 -2 8 4 4 7 -4 12 -2 12 3 0 6 -4 11 -10 11 -5 0 -10 5 -10
11 0 5 5 7 10 4 6 -3 10 -1 10 4 0 6 -4 11 -10 11 -5 0 -10 5 -10 11 0 5 5 7
10 4 15 -9 12 4 -5 21 -8 9 -15 20 -15 27 0 6 6 2 14 -9 12 -15 14 -16 12 -3
-1 10 -8 24 -15 33 -7 8 -10 19 -7 25 3 5 0 12 -6 15 -7 3 -4 4 8 1 14 -4 21
0 21 9 0 9 -4 13 -8 11 -4 -3 -9 2 -13 10 -3 8 -1 15 5 15 5 0 2 11 -7 25 -9
14 -14 28 -10 32 3 3 6 1 6 -6 0 -7 4 -9 10 -6 6 3 7 -1 4 -9 -3 -9 -2 -16 4
-16 11 0 11 18 -1 36 -3 6 -3 14 0 18 10 10 11 56 1 50 -4 -3 -8 0 -8 5 0 6 8
11 18 12 11 1 9 4 -8 9 -21 7 -22 8 -5 9 17 1 17 3 5 11 -11 7 -12 10 -2 10
10 0 10 4 -2 16 -19 18 -21 28 -4 18 7 -5 9 -2 6 8 -4 8 -2 21 2 28 5 8 6 19
2 25 -10 16 -11 36 -1 29 5 -3 6 -11 3 -17 -4 -7 -3 -8 2 -4 5 5 10 13 10 18
1 5 2 14 3 20 0 5 5 8 11 4 5 -3 7 -12 4 -19 -3 -8 -1 -17 5 -21 7 -4 8 0 4
11 -5 13 -3 15 8 9 8 -4 1 6 -14 22 -24 26 -26 31 -12 37 9 3 13 2 10 -3 -3
-5 -1 -12 4 -15 5 -4 8 2 6 11 -1 10 2 23 7 29 5 8 3 18 -7 27 -17 18 -20 31
-4 21 7 -4 10 6 8 29 -2 20 1 40 5 44 5 5 6 2 1 -6 -5 -9 -4 -12 3 -8 14 9 9
36 -9 48 -10 7 -5 8 16 4 25 -5 27 -4 13 5 -10 6 -18 15 -18 20 0 14 28 12 32
-2 3 -7 7 -5 11 6 4 10 3 15 -3 11 -6 -3 -10 -3 -11 2 0 4 -2 16 -4 25 -2 10
1 20 5 23 5 3 7 19 5 37 -4 29 -3 30 10 12 13 -18 14 -17 9 10 -4 23 -2 27 11
22 10 -3 14 -2 10 5 -4 6 1 19 11 30 9 10 14 19 9 19 -4 0 -2 7 5 15 7 8 9 15
5 15 -5 0 0 9 10 20 10 11 15 20 10 20 -4 0 -13 -7 -19 -16 -10 -13 -12 -11
-11 14 0 16 5 29 12 29 7 0 9 -5 6 -10 -3 -6 -1 -7 6 -3 9 6 9 11 0 22 -9 11
-8 15 4 20 9 3 14 14 12 25 -2 11 0 17 6 14 5 -4 7 -11 4 -16 -3 -5 1 -6 10
-2 9 3 12 9 7 12 -5 3 -11 18 -14 33 -4 19 -1 25 9 21 7 -3 11 -8 8 -12 -2 -4
2 -8 10 -8 8 0 11 5 7 11 -16 26 -12 45 8 41 12 -2 18 0 15 6 -4 5 -12 7 -18
3 -7 -3 -3 2 8 12 14 12 16 15 4 11 -9 -3 -21 -1 -27 5 -8 8 -9 4 -5 -13 l6
-24 -19 20 c-10 12 -15 15 -10 7z m20 -38 c3 -8 2 -12 -4 -9 -6 3 -10 10 -10
16 0 14 7 11 14 -7z m-31 -9 c-3 -9 -8 -14 -10 -11 -3 3 -2 9 2 15 9 16 15 13
8 -4z m-191 -192 c-9 -4 -10 -8 -2 -18 8 -9 8 -15 0 -20 -6 -4 -10 -3 -9 2 4
24 -4 25 -22 3 -11 -14 -17 -18 -13 -10 12 25 36 50 48 49 6 0 5 -3 -2 -6z
m153 -13 c-3 -5 -11 -10 -16 -10 -6 0 -7 5 -4 10 3 6 11 10 16 10 6 0 7 -4 4
-10z m-5 -23 c0 -2 -8 -11 -18 -20 -15 -14 -19 -15 -19 -2 0 8 4 12 8 9 4 -2
10 0 14 6 6 10 15 14 15 7z m-230 -57 c-13 -8 -12 -10 4 -10 11 0 17 -3 13 -6
-3 -4 -13 -4 -22 0 -18 6 -11 26 8 26 7 0 6 -4 -3 -10z m130 -314 c0 -2 -7 -7
-16 -10 -8 -3 -12 -2 -9 4 6 10 25 14 25 6z m-47 -21 c-3 -9 -8 -14 -10 -11
-3 3 -2 9 2 15 9 16 15 13 8 -4z m7 -45 c0 -5 -2 -10 -4 -10 -3 0 -8 5 -11 10
-3 6 -1 10 4 10 6 0 11 -4 11 -10z m-325 -29 c3 -5 2 -12 -3 -15 -5 -3 -9 1
-9 9 0 17 3 19 12 6z m312 -206 c0 -8 -4 -12 -9 -9 -5 3 -6 10 -3 15 9 13 12
11 12 -6z m-532 -385 c3 -5 1 -10 -4 -10 -6 0 -11 5 -11 10 0 6 2 10 4 10 3 0
8 -4 11 -10z m-33 -57 c-6 -2 -10 -9 -7 -13 3 -5 1 -11 -4 -14 -7 -5 -8 11 -2
32 1 1 7 2 14 1 9 0 9 -2 -1 -6z m-22 -288 c-7 -8 -9 -15 -6 -15 4 0 0 -7 -8
-16 -9 -8 -13 -21 -9 -27 3 -7 2 -9 -2 -4 -5 4 -9 16 -10 27 -1 11 1 18 3 15
3 -3 11 4 19 15 8 11 17 20 20 20 3 0 0 -7 -7 -15z m714 -113 c2 -4 -4 -8 -14
-8 -10 0 -16 4 -14 8 3 4 9 8 14 8 5 0 11 -4 14 -8z m-724 -23 c11 -8 9 -9
-10 -3 -23 6 -24 6 -10 -12 14 -18 14 -18 -2 -5 -29 22 -8 41 22 20z m-21 -42
c8 -10 7 -14 -2 -14 -8 0 -14 6 -14 14 0 7 1 13 2 13 2 0 8 -6 14 -13z m821
-131 c0 -3 -4 -8 -10 -11 -5 -3 -10 -1 -10 4 0 6 5 11 10 11 6 0 10 -2 10 -4z
m-795 -86 c3 -6 -1 -7 -9 -4 -18 7 -21 14 -7 14 6 0 13 -4 16 -10z m8 -96 c-7
-3 -9 -12 -6 -20 3 -8 1 -14 -5 -14 -8 0 -9 16 -3 38 1 1 7 2 14 1 9 0 9 -2 0
-5z m903 -59 c1 -8 -2 -15 -6 -15 -5 0 -8 9 -7 20 1 21 10 18 13 -5z m-902 -6
c-3 -5 -10 -7 -15 -3 -5 3 -7 10 -3 15 3 5 10 7 15 3 5 -3 7 -10 3 -15z m37
-227 c-7 -2 -18 1 -23 6 -8 8 -4 9 13 5 13 -4 18 -8 10 -11z m1014 8 c3 -5 1
-10 -4 -10 -6 0 -11 5 -11 10 0 6 2 10 4 10 3 0 8 -4 11 -10z m109 -139 c-2
-2 1 -10 7 -18 9 -9 8 -13 0 -13 -6 0 -11 5 -11 11 0 6 -8 9 -18 7 -11 -3 -19
0 -19 7 0 7 10 12 23 11 12 0 20 -3 18 -5z m101 -141 c-3 -5 -12 -10 -18 -10
-7 0 -6 4 3 10 19 12 23 12 15 0z m-1138 -56 c-3 -3 -12 -4 -19 -1 -8 3 -5 6
6 6 11 1 17 -2 13 -5z m1220 -21 c0 -7 -6 -13 -12 -13 -6 0 -12 6 -12 13 0 8
6 14 12 14 6 0 12 -6 12 -14z m14 -60 c13 -16 12 -17 -3 -4 -10 7 -18 15 -18
17 0 8 8 3 21 -13z m-1201 -3 c0 -5 -5 -10 -11 -10 -5 0 -7 5 -4 10 3 6 8 10
11 10 2 0 4 -4 4 -10z m246 -499 c-4 -5 -1 -11 6 -13 8 -3 6 -6 -4 -10 -11 -5
-15 -2 -13 10 5 23 4 22 11 22 3 0 3 -4 0 -9z m1548 -43 c-8 -12 -27 6 -30 28
-2 14 0 14 17 -1 10 -10 16 -22 13 -27z m95 -81 c0 -9 -2 -8 -6 1 -2 6 -10 9
-15 6 -7 -4 -8 -2 -4 5 9 13 26 5 25 -12z m68 -72 c0 -8 -4 -12 -9 -9 -5 3 -6
10 -3 15 9 13 12 11 12 -6z m-1557 -41 c0 -8 -19 -13 -24 -6 -3 5 1 9 9 9 8 0
15 -2 15 -3z m40 -54 c0 -5 -2 -10 -4 -10 -3 0 -8 5 -11 10 -3 6 -1 10 4 10 6
0 11 -4 11 -10z m1695 -30 c17 -18 17 -20 2 -14 -9 3 -17 10 -17 16 0 5 -5 6
-12 2 -7 -4 -8 -3 -4 4 9 16 10 15 31 -8z m-1649 -25 c9 -8 11 -15 6 -15 -5 0
-15 7 -22 15 -7 8 -9 15 -6 15 4 0 14 -7 22 -15z m114 -121 c0 -8 -19 -13 -24
-6 -3 5 1 9 9 9 8 0 15 -2 15 -3z m1687 -9 c-6 -7 -15 -11 -19 -8 -14 8 -8 19
12 20 16 1 17 -1 7 -12z m-1677 -20 c-7 -8 -17 -12 -23 -8 -6 4 -3 9 9 14 27
11 28 11 14 -6z m1843 -148 c13 -20 13 -24 1 -24 -8 0 -12 2 -9 5 2 3 0 13 -6
23 -14 27 -4 24 14 -4z m92 -97 c3 -5 1 -10 -4 -10 -6 0 -11 5 -11 10 0 6 2
10 4 10 3 0 8 -4 11 -10z m-3551 -108 c3 -5 -1 -9 -9 -9 -8 0 -12 4 -9 9 3 4
7 8 9 8 2 0 6 -4 9 -8z m987 -9 c13 -16 12 -17 -3 -4 -17 13 -22 21 -14 21 2
0 10 -8 17 -17z m2739 -83 c0 -5 -5 -10 -11 -10 -5 0 -7 5 -4 10 3 6 8 10 11
10 2 0 4 -4 4 -10z m-1486 -158 c3 -5 -1 -9 -9 -9 -8 0 -12 4 -9 9 3 4 7 8 9
8 2 0 6 -4 9 -8z m26 -61 c0 -5 8 -11 18 -13 11 -2 13 -6 6 -10 -6 -4 -19 1
-29 12 -10 12 -13 20 -7 20 7 0 12 -4 12 -9z m-837 -18 c-3 -7 -6 -13 -8 -13
-2 0 -5 6 -8 13 -3 8 1 14 8 14 7 0 11 -6 8 -14z m-1578 -3 c-3 -5 -1 -10 6
-10 7 0 10 -3 6 -6 -9 -9 -28 6 -22 17 4 5 8 9 11 9 3 0 2 -4 -1 -10z m2489
-36 c3 -8 2 -12 -4 -9 -6 3 -10 10 -10 16 0 14 7 11 14 -7z m-950 -2 c3 -5 -1
-9 -9 -9 -8 0 -12 4 -9 9 3 4 7 8 9 8 2 0 6 -4 9 -8z m30 -8 c3 -8 2 -12 -4
-9 -6 3 -10 10 -10 16 0 14 7 11 14 -7z m-24 -44 c-8 -5 -19 -10 -25 -10 -5 0
-3 5 5 10 8 5 20 10 25 10 6 0 3 -5 -5 -10z m-97 -345 c-3 -9 -8 -14 -10 -11
-3 3 -2 9 2 15 9 16 15 13 8 -4z m-1573 -79 c0 -3 -4 -8 -10 -11 -5 -3 -10 -1
-10 4 0 6 5 11 10 11 6 0 10 -2 10 -4z m1524 -92 c3 -8 2 -12 -4 -9 -6 3 -10
10 -10 16 0 14 7 11 14 -7z m6 -28 c0 -11 -19 -15 -25 -6 -3 5 1 10 9 10 9 0
16 -2 16 -4z m1451 -188 c-10 -11 -11 -9 -5 6 6 15 4 17 -6 11 -9 -6 -11 -4
-5 4 5 9 10 10 18 2 8 -8 7 -14 -2 -23z m1614 -7 c3 -5 2 -12 -3 -15 -5 -3 -9
1 -9 9 0 17 3 19 12 6z m-4698 -35 c0 -8 -6 -12 -14 -9 -7 3 -10 9 -7 14 8 14
21 11 21 -5z m3080 -11 c0 -8 -4 -12 -9 -9 -5 3 -6 10 -3 15 9 13 12 11 12 -6z
m-1457 -45 c0 -4 -6 -10 -13 -13 -7 -3 -13 3 -13 13 0 10 6 16 13 13 7 -3 13
-9 13 -13z m-13 -52 c-3 -8 -6 -5 -6 6 -1 11 2 17 5 13 3 -3 4 -12 1 -19z m51
-113 c-6 -14 -13 -24 -14 -22 -6 6 9 47 17 47 5 0 3 -11 -3 -25z m3117 -163
c-1 -9 2 -22 7 -29 12 -15 -4 -24 -22 -12 -9 5 -10 9 -3 9 15 0 10 33 -7 38
-10 4 -10 6 1 13 18 10 28 3 24 -19z m-3005 -26 c0 -2 -7 -7 -16 -10 -8 -3
-12 -2 -9 4 6 10 25 14 25 6z m40 -31 c7 -9 8 -15 2 -15 -5 0 -12 7 -16 15 -3
8 -4 15 -2 15 2 0 9 -7 16 -15z m45 -55 c3 -5 1 -10 -4 -10 -6 0 -11 5 -11 10
0 6 2 10 4 10 3 0 8 -4 11 -10z m-1905 -74 c0 -2 -7 -7 -16 -10 -8 -3 -12 -2
-9 4 6 10 25 14 25 6z m2059 -14 c7 -13 6 -19 -2 -19 -7 0 -13 9 -13 19 0 10
1 18 3 18 1 0 7 -8 12 -18z m651 8 c0 -5 -8 -10 -17 -10 -15 0 -16 2 -3 10 19
12 20 12 20 0z m-609 -37 c13 -16 12 -17 -3 -4 -10 7 -18 15 -18 17 0 8 8 3
21 -13z m557 -8 c-3 -3 -9 2 -12 12 -6 14 -5 15 5 6 7 -7 10 -15 7 -18z m-467
-18 c-13 -13 -26 -3 -16 12 3 6 11 8 17 5 6 -4 6 -10 -1 -17z m149 -6 c3 -1
11 -11 19 -23 13 -20 12 -22 -1 -11 -11 10 -17 10 -28 0 -12 -10 -12 -9 -2 4
6 9 9 19 5 22 -3 4 -11 0 -17 -9 -10 -13 -12 -13 -12 4 0 12 6 18 16 17 8 -2
17 -4 20 -4z m174 -8 c4 -9 2 -11 -7 -6 -20 13 -31 10 -45 -12 -10 -15 -12
-16 -8 -2 3 9 1 17 -5 17 -6 0 -8 3 -6 8 9 14 66 10 71 -5z m2326 13 c0 -2 -7
-7 -16 -10 -8 -3 -12 -2 -9 4 6 10 25 14 25 6z m-4833 -228 c1 -10 -3 -18 -9
-18 -6 0 -8 3 -5 7 4 3 2 11 -3 18 -7 8 -6 12 3 12 7 0 14 -9 14 -19z m27 -70
c-3 -4 -11 -5 -19 -1 -8 3 -15 2 -15 -1 0 -4 10 -11 23 -16 20 -8 20 -9 2 -10
-17 0 -18 -2 -5 -11 13 -9 13 -10 0 -6 -8 2 -15 9 -15 15 0 5 -3 14 -7 18 -15
14 -8 24 16 22 14 -1 22 -6 20 -10z m111 -378 c-3 -5 -12 -10 -18 -10 -7 0 -6
4 3 10 19 12 23 12 15 0z m4520 -108 c-3 -3 -11 0 -18 7 -9 10 -8 11 6 5 10
-3 15 -9 12 -12z m-4472 -38 c-7 -3 -9 -13 -6 -22 4 -14 3 -14 -5 -2 -12 16
-7 30 11 29 9 0 9 -2 0 -5z m4427 -100 c0 -8 -19 -13 -24 -6 -3 5 1 9 9 9 8 0
15 -2 15 -3z m-4370 -36 c0 -6 -6 -5 -15 2 -8 7 -15 14 -15 16 0 2 7 1 15 -2
8 -4 15 -11 15 -16z m4309 -79 c-22 -13 -31 -11 -17 5 7 8 17 12 22 9 4 -3 2
-9 -5 -14z m-4139 -184 c11 7 7 -22 -5 -32 -4 -4 -5 -3 -1 4 3 6 2 14 -4 18
-5 3 -10 12 -9 18 0 9 2 8 6 -1 2 -6 8 -10 13 -7z m82 -112 c-6 -2 -9 -10 -5
-16 4 -7 -1 -6 -10 2 -22 18 -21 21 6 20 12 0 16 -3 9 -6z m417 -396 c14 4 14
3 1 -6 -21 -15 -27 -14 -35 7 -5 13 -3 14 6 5 6 -6 19 -9 28 -6z m239 -165
c15 12 16 11 3 -4 -14 -19 -32 -15 -30 5 0 8 2 8 6 -1 4 -10 8 -10 21 0z
m2487 -80 c-2 -9 -4 -18 -4 -20 -1 -2 -6 0 -11 3 -8 5 -8 11 -1 19 6 7 7 17 3
21 -4 5 -2 5 5 2 6 -4 10 -15 8 -25z m-2302 -27 c-3 -9 -8 -14 -10 -11 -3 3
-2 9 2 15 9 16 15 13 8 -4z m358 -142 c13 -16 12 -17 -3 -4 -10 7 -18 15 -18
17 0 8 8 3 21 -13z m1512 -13 c3 6 5 6 3 -1 -3 -17 -33 -20 -33 -3 0 10 4 11
13 3 8 -7 14 -6 17 1z m-1380 -27 c-3 -7 -6 -13 -8 -13 -2 0 -5 6 -8 13 -3 8
1 14 8 14 7 0 11 -6 8 -14z m1230 -14 c-8 -8 -13 -7 -18 2 -6 8 -4 10 5 4 10
-6 12 -4 6 11 -6 15 -5 17 5 7 9 -10 10 -16 2 -24z m-118 -19 c3 -5 1 -10 -4
-10 -6 0 -11 5 -11 10 0 6 2 10 4 10 3 0 8 -4 11 -10z m55 -1 c0 -12 -19 -21
-30 -14 -6 4 -8 10 -6 14 7 10 36 10 36 0z m-990 -5 c0 -8 -19 -13 -24 -6 -3
5 1 9 9 9 8 0 15 -2 15 -3z m115 -23 c-3 -6 -11 -11 -16 -11 -5 0 -4 6 3 14
14 16 24 13 13 -3z m582 -6 c0 -8 -6 -16 -14 -19 -11 -4 -11 -1 -3 14 13 24
17 25 17 5z m-187 -10 c-7 -8 -17 -15 -23 -15 -6 0 -2 7 9 15 25 19 30 19 14
0z"/>
<path d="M3850 8819 c0 -5 5 -7 10 -4 6 3 10 8 10 11 0 2 -4 4 -10 4 -5 0 -10
-5 -10 -11z"/>
<path d="M3795 8720 c-17 -8 -17 -9 7 -7 15 1 24 5 22 9 -3 4 -6 8 -7 7 -1 0
-11 -4 -22 -9z"/>
<path d="M4026 8698 c3 -5 10 -6 15 -3 13 9 11 12 -6 12 -8 0 -12 -4 -9 -9z"/>
<path d="M4050 8679 c0 -5 5 -7 10 -4 6 3 10 8 10 11 0 2 -4 4 -10 4 -5 0 -10
-5 -10 -11z"/>
<path d="M4645 8610 c-16 -7 -17 -9 -3 -9 9 -1 20 4 23 9 7 11 7 11 -20 0z"/>
<path d="M4640 8580 c-13 -8 -12 -10 3 -10 9 0 17 5 17 10 0 12 -1 12 -20 0z"/>
<path d="M3755 8569 c-4 -6 -5 -12 -2 -15 2 -3 7 2 10 11 7 17 1 20 -8 4z"/>
<path d="M4663 8495 c0 -8 4 -12 9 -9 5 3 6 10 3 15 -9 13 -12 11 -12 -6z"/>
<path d="M3436 8473 c-6 -14 -5 -15 5 -6 7 7 10 15 7 18 -3 3 -9 -2 -12 -12z"/>
<path d="M3701 8482 c1 -4 0 -9 -1 -12 -7 -19 -7 -39 1 -34 5 3 7 9 4 14 -3 5
2 13 11 18 15 8 15 10 0 15 -9 4 -15 3 -15 -1z"/>
<path d="M4663 8455 c0 -7 6 -11 14 -8 7 3 13 6 13 8 0 2 -6 5 -13 8 -8 3 -14
-1 -14 -8z"/>
<path d="M4710 8356 c0 -8 4 -17 9 -20 5 -4 7 3 4 14 -6 23 -13 26 -13 6z"/>
<path d="M4775 8220 c3 -5 8 -10 11 -10 2 0 4 5 4 10 0 6 -5 10 -11 10 -5 0
-7 -4 -4 -10z"/>
<path d="M3266 8209 c4 -6 0 -15 -7 -20 -11 -7 -11 -9 -1 -9 8 0 10 -5 6 -12
-4 -7 -5 -11 -1 -8 3 3 6 10 7 15 1 6 6 15 11 21 6 8 4 14 -6 18 -10 4 -14 2
-9 -5z"/>
<path d="M3867 8159 c7 -7 15 -10 18 -7 3 3 -2 9 -12 12 -14 6 -15 5 -6 -5z"/>
<path d="M3850 8140 c0 -5 5 -10 11 -10 5 0 7 -5 3 -12 -4 -7 -3 -8 5 -4 9 6
9 11 0 22 -14 17 -19 18 -19 4z"/>
<path d="M4817 8128 c-7 -21 14 -56 37 -62 19 -5 19 -4 4 8 -10 7 -14 17 -10
21 4 5 1 5 -5 1 -13 -7 -17 4 -14 32 1 6 0 12 -3 12 -2 0 -6 -6 -9 -12z"/>
<path d="M3210 8120 c0 -5 5 -10 10 -10 6 0 10 5 10 10 0 6 -4 10 -10 10 -5 0
-10 -4 -10 -10z"/>
<path d="M3210 8081 c-7 -15 -7 -22 2 -27 7 -4 10 -4 6 1 -4 4 -3 16 3 26 5
11 7 19 5 19 -3 0 -10 -9 -16 -19z"/>
<path d="M3606 8074 c-3 -8 -2 -12 4 -9 14 9 12 -9 -2 -23 -9 -9 -9 -12 0 -12
13 0 13 1 17 38 3 25 -10 30 -19 6z"/>
<path d="M3855 8029 c-11 -17 1 -21 15 -4 8 9 8 15 2 15 -6 0 -14 -5 -17 -11z"/>
<path d="M3167 8003 c3 -7 6 -13 8 -13 2 0 5 6 8 13 3 8 -1 14 -8 14 -7 0 -11
-6 -8 -14z"/>
<path d="M4925 7981 c-6 -11 13 -26 22 -17 4 3 1 6 -6 6 -7 0 -9 5 -6 10 3 6
4 10 1 10 -3 0 -7 -4 -11 -9z"/>
<path d="M4940 7946 c0 -2 7 -9 15 -16 9 -7 15 -8 15 -2 0 5 -7 12 -15 16 -8
3 -15 4 -15 2z"/>
<path d="M5006 7882 c-2 -4 2 -16 10 -27 12 -16 14 -17 14 -2 0 9 -5 17 -11
17 -5 0 -7 5 -4 10 3 6 4 10 1 10 -3 0 -7 -3 -10 -8z"/>
<path d="M3065 7780 c-3 -6 1 -7 9 -4 18 7 21 14 7 14 -6 0 -13 -4 -16 -10z"/>
<path d="M3590 7762 c0 -5 7 -9 15 -9 8 0 12 4 9 9 -3 4 -9 8 -15 8 -5 0 -9
-4 -9 -8z"/>
<path d="M5145 7729 c-4 -6 -5 -12 -2 -15 2 -3 7 2 10 11 7 17 1 20 -8 4z"/>
<path d="M5205 7660 c4 -6 11 -8 16 -5 14 9 11 15 -7 15 -8 0 -12 -5 -9 -10z"/>
<path d="M3016 7602 c-3 -4 4 -9 15 -9 23 -2 25 3 4 10 -8 4 -16 3 -19 -1z"/>
<path d="M3020 7570 c-8 -5 -10 -10 -5 -10 6 0 17 5 25 10 8 5 11 10 5 10 -5
0 -17 -5 -25 -10z"/>
<path d="M3614 7533 c2 -9 8 -18 15 -19 6 -1 7 0 2 2 -6 3 -7 12 -4 20 3 8 1
14 -5 14 -6 0 -9 -8 -8 -17z"/>
<path d="M3645 7500 c-4 -6 -11 -8 -16 -5 -5 3 -6 -1 -3 -9 3 -9 11 -16 17
-16 6 0 7 3 4 7 -4 3 -2 12 4 20 6 7 9 13 6 13 -3 0 -9 -5 -12 -10z"/>
<path d="M5445 7435 c14 -13 25 -29 25 -35 0 -5 4 -10 8 -10 5 0 9 7 9 15 0 8
-4 12 -9 9 -7 -5 -12 10 -9 29 1 5 -3 6 -8 3 -5 -4 -12 -2 -16 4 -3 5 -10 10
-15 10 -5 0 2 -11 15 -25z"/>
<path d="M5515 7360 c3 -5 8 -10 11 -10 2 0 4 5 4 10 0 6 -5 10 -11 10 -5 0
-7 -4 -4 -10z"/>
<path d="M3920 7331 c8 -6 11 -11 6 -11 -6 0 -5 -5 2 -12 9 -9 7 -14 -5 -23
-13 -10 -13 -14 -3 -20 8 -5 11 -4 7 2 -4 6 0 14 9 17 14 5 14 9 3 23 -8 9
-13 19 -11 22 2 3 -2 7 -10 9 -9 2 -8 0 2 -7z"/>
<path d="M3680 7241 c4 -9 8 -19 9 -23 1 -5 3 -8 6 -8 3 0 8 0 11 0 4 0 1 7
-6 15 -6 8 -9 18 -6 23 3 5 -1 9 -9 9 -10 0 -11 -5 -5 -16z"/>
<path d="M3997 7089 c7 -7 15 -10 18 -7 3 3 -2 9 -12 12 -14 6 -15 5 -6 -5z"/>
<path d="M3751 7074 c0 -11 3 -14 6 -6 3 7 2 16 -1 19 -3 4 -6 -2 -5 -13z"/>
<path d="M5995 6921 c-6 -11 13 -26 22 -17 4 3 1 6 -6 6 -7 0 -9 5 -6 10 3 6
4 10 1 10 -3 0 -7 -4 -11 -9z"/>
<path d="M6096 6838 c3 -5 10 -6 15 -3 13 9 11 12 -6 12 -8 0 -12 -4 -9 -9z"/>
<path d="M6161 6748 c2 -2 18 -14 34 -28 17 -14 25 -19 18 -11 -6 7 -9 21 -6
30 4 14 3 14 -6 1 -7 -10 -11 -11 -11 -2 0 6 -7 12 -17 12 -9 0 -14 -1 -12 -2z"/>
<path d="M4177 6733 c-10 -9 -9 -23 1 -23 5 0 9 7 9 15 0 17 -1 18 -10 8z"/>
<path d="M2955 6700 c3 -5 8 -10 11 -10 2 0 4 5 4 10 0 6 -5 10 -11 10 -5 0
-7 -4 -4 -10z"/>
<path d="M4190 6683 c0 -19 21 -27 33 -13 9 10 9 11 -2 5 -8 -4 -17 -2 -22 6
-6 9 -9 10 -9 2z"/>
<path d="M4220 6640 c0 -6 7 -10 15 -10 8 0 15 2 15 4 0 2 -7 6 -15 10 -8 3
-15 1 -15 -4z"/>
<path d="M4230 6616 c0 -2 7 -7 16 -10 8 -3 12 -2 9 4 -6 10 -25 14 -25 6z"/>
<path d="M3955 6601 c-3 -5 -2 -12 3 -15 5 -3 9 1 9 9 0 17 -3 19 -12 6z"/>
<path d="M6356 6548 c3 -4 11 -5 19 -1 21 7 19 12 -4 10 -11 0 -18 -5 -15 -9z"/>
<path d="M4612 6155 c6 -14 15 -25 20 -25 5 0 1 11 -8 25 -9 14 -18 25 -20 25
-2 0 2 -11 8 -25z"/>
<path d="M4420 6001 c0 -7 -4 -9 -10 -6 -5 3 -10 1 -10 -4 0 -6 4 -11 9 -11
13 0 25 20 17 27 -3 4 -6 1 -6 -6z"/>
<path d="M6810 5965 c0 -2 10 -10 23 -16 20 -11 21 -11 8 4 -13 16 -31 23 -31
12z"/>
<path d="M4495 5900 c3 -5 8 -10 11 -10 2 0 4 5 4 10 0 6 -5 10 -11 10 -5 0
-7 -4 -4 -10z"/>
<path d="M4894 5887 c14 -13 22 -28 18 -32 -4 -5 -1 -5 6 -1 11 6 8 13 -9 32
-12 13 -26 24 -31 24 -5 0 2 -11 16 -23z"/>
<path d="M3205 5826 c10 -14 19 -26 22 -26 7 0 -17 39 -28 46 -6 3 -3 -5 6
-20z"/>
<path d="M4597 5823 c-2 -5 -1 -17 3 -27 6 -19 7 -19 12 2 6 21 -6 40 -15 25z"/>
<path d="M4626 5801 c-8 -13 3 -38 19 -45 8 -3 17 0 21 6 4 6 3 8 -3 5 -14 -9
-37 19 -28 33 3 5 4 10 1 10 -3 0 -7 -4 -10 -9z"/>
<path d="M3214 5778 c-5 -8 -2 -9 9 -5 9 3 19 2 22 -3 4 -6 1 -10 -6 -10 -7 0
-10 -3 -6 -6 3 -3 11 -3 17 1 8 5 8 11 -1 21 -14 17 -25 18 -35 2z"/>
<path d="M5050 5746 c0 -4 7 -14 15 -22 8 -9 15 -11 15 -6 0 5 -7 15 -15 22
-8 7 -15 9 -15 6z"/>
<path d="M3256 5697 c3 -10 9 -15 12 -12 3 3 0 11 -7 18 -10 9 -11 8 -5 -6z"/>
<path d="M5114 5680 c0 -13 4 -16 10 -10 7 7 7 13 0 20 -6 6 -10 3 -10 -10z"/>
<path d="M6980 5679 c0 -9 31 -21 38 -14 3 3 0 5 -7 5 -7 0 -10 4 -7 8 3 5 -1
9 -9 9 -8 0 -15 -4 -15 -8z"/>
<path d="M5157 5633 c-4 -3 -7 -11 -7 -17 0 -6 5 -5 12 2 6 6 9 14 7 17 -3 3
-9 2 -12 -2z"/>
<path d="M5215 5580 c3 -5 11 -10 16 -10 6 0 7 5 4 10 -3 6 -11 10 -16 10 -6
0 -7 -4 -4 -10z"/>
<path d="M3357 5556 c-4 -10 -1 -13 8 -9 8 3 12 9 9 14 -7 12 -11 11 -17 -5z"/>
<path d="M5341 5474 c0 -11 3 -14 6 -6 3 7 2 16 -1 19 -3 4 -6 -2 -5 -13z"/>
<path d="M7101 5437 c-8 -11 -5 -16 17 -26 24 -10 25 -10 8 3 -10 8 -15 19
-11 25 9 16 0 14 -14 -2z"/>
<path d="M5159 5303 c8 -15 17 -20 31 -16 11 3 20 10 20 15 0 5 -7 5 -17 -1
-12 -6 -21 -5 -31 7 -11 15 -12 14 -3 -5z"/>
<path d="M5238 5225 c10 -15 21 -20 27 -14 11 11 -7 32 -30 35 -12 2 -12 -2 3
-21z"/>
<path d="M3547 5219 c7 -7 15 -10 18 -7 3 3 -2 9 -12 12 -14 6 -15 5 -6 -5z"/>
<path d="M7184 5179 c-8 -14 14 -19 25 -6 8 10 7 14 -5 14 -8 0 -17 -4 -20 -8z"/>
<path d="M7230 5140 c-9 -6 -10 -10 -3 -10 6 0 15 5 18 10 8 12 4 12 -15 0z"/>
<path d="M3655 5089 c-4 -6 -5 -12 -2 -15 2 -3 7 2 10 11 7 17 1 20 -8 4z"/>
<path d="M5527 4961 c-4 -17 -3 -21 5 -13 5 5 8 16 6 23 -3 8 -7 3 -11 -10z"/>
<path d="M5905 4929 c-4 -6 -5 -12 -2 -15 2 -3 7 2 10 11 7 17 1 20 -8 4z"/>
<path d="M3863 4878 c0 -13 1 -17 4 -10 3 6 10 9 16 5 7 -4 6 1 -2 10 -17 21
-17 21 -18 -5z"/>
<path d="M5966 4868 c3 -10 10 -18 16 -18 5 0 7 -10 3 -22 -5 -21 -5 -21 6 -4
9 15 7 22 -10 40 -18 17 -21 18 -15 4z"/>
<path d="M3940 4800 c0 -5 5 -10 11 -10 5 0 7 5 4 10 -3 6 -8 10 -11 10 -2 0
-4 -4 -4 -10z"/>
<path d="M5790 4681 c0 -13 29 -35 37 -28 3 4 -2 9 -11 13 -9 3 -13 10 -10 15
3 5 0 9 -5 9 -6 0 -11 -4 -11 -9z"/>
<path d="M7326 4605 c-9 -26 -7 -32 5 -12 6 10 9 21 6 23 -2 3 -7 -2 -11 -11z"/>
<path d="M4145 4599 c-4 -6 -4 -13 -1 -16 3 -4 6 -1 6 6 0 7 5 9 12 5 7 -4 8
-3 4 4 -9 15 -13 15 -21 1z"/>
<path d="M3666 4578 c3 -5 10 -6 15 -3 13 9 11 12 -6 12 -8 0 -12 -4 -9 -9z"/>
<path d="M2050 4560 c0 -5 5 -10 10 -10 6 0 10 5 10 10 0 6 -4 10 -10 10 -5 0
-10 -4 -10 -10z"/>
<path d="M7311 4567 c2 -2 11 -8 20 -15 12 -9 16 -9 16 1 0 7 -9 14 -20 14
-11 1 -18 1 -16 0z"/>
<path d="M5920 4541 c0 -7 -5 -9 -12 -5 -7 5 -8 3 -3 -5 5 -9 10 -10 18 -2 6
6 8 14 4 18 -4 3 -7 1 -7 -6z"/>
<path d="M7320 4534 c8 -10 15 -20 16 -22 1 -2 4 1 7 5 3 5 -4 15 -16 23 -21
12 -21 12 -7 -6z"/>
<path d="M5955 4500 c3 -5 8 -10 11 -10 2 0 4 5 4 10 0 6 -5 10 -11 10 -5 0
-7 -4 -4 -10z"/>
<path d="M3635 4473 c-4 -10 -9 -28 -11 -40 -2 -18 0 -20 11 -10 10 9 10 15 1
26 -9 12 -8 14 5 9 13 -5 16 -2 12 13 -6 23 -9 24 -18 2z"/>
<path d="M5947 4479 c7 -7 15 -10 18 -7 3 3 -2 9 -12 12 -14 6 -15 5 -6 -5z"/>
<path d="M5990 4459 c0 -5 5 -7 10 -4 6 3 10 8 10 11 0 2 -4 4 -10 4 -5 0 -10
-5 -10 -11z"/>
<path d="M4330 4420 c0 -6 7 -10 15 -10 8 0 15 2 15 4 0 2 -7 6 -15 10 -8 3
-15 1 -15 -4z"/>
<path d="M6305 4420 c-4 -6 -3 -10 2 -9 20 3 25 -2 14 -15 -10 -12 -8 -13 9
-9 20 5 20 7 4 24 -20 22 -21 22 -29 9z"/>
<path d="M6343 4369 c9 -6 14 -16 11 -22 -5 -8 -2 -7 7 1 12 11 12 14 -1 22
-8 5 -19 10 -25 10 -5 -1 -2 -5 8 -11z"/>
<path d="M1990 4360 c0 -5 5 -10 11 -10 5 0 7 5 4 10 -3 6 -8 10 -11 10 -2 0
-4 -4 -4 -10z"/>
<path d="M6049 4353 c12 -8 25 -12 28 -9 4 3 1 6 -6 6 -7 0 -10 4 -7 8 2 4 -5
9 -16 9 -21 2 -21 2 1 -14z"/>
<path d="M6377 4303 c-12 -11 3 -22 21 -16 15 6 15 5 3 -10 -7 -9 -9 -17 -3
-17 19 0 21 30 3 39 -10 6 -21 8 -24 4z"/>
<path d="M6456 4158 c3 -5 10 -6 15 -3 13 9 11 12 -6 12 -8 0 -12 -4 -9 -9z"/>
<path d="M6215 4140 c3 -5 8 -10 11 -10 2 0 4 5 4 10 0 6 -5 10 -11 10 -5 0
-7 -4 -4 -10z"/>
<path d="M7330 4131 c0 -6 4 -13 10 -16 6 -3 7 1 4 9 -7 18 -14 21 -14 7z"/>
<path d="M7315 4110 c10 -11 20 -20 23 -20 3 0 -3 9 -13 20 -10 11 -20 20 -23
20 -3 0 3 -9 13 -20z"/>
<path d="M4676 4005 c4 -8 8 -15 10 -15 2 0 4 7 4 15 0 8 -4 15 -10 15 -5 0
-7 -7 -4 -15z"/>
<path d="M1890 3980 c0 -5 5 -10 11 -10 5 0 7 5 4 10 -3 6 -8 10 -11 10 -2 0
-4 -4 -4 -10z"/>
<path d="M7295 3980 c3 -5 8 -10 11 -10 2 0 4 5 4 10 0 6 -5 10 -11 10 -5 0
-7 -4 -4 -10z"/>
<path d="M6620 3860 c-9 -6 -10 -10 -3 -10 6 0 15 5 18 10 8 12 4 12 -15 0z"/>
<path d="M4777 3833 c-2 -5 -1 -17 3 -27 6 -19 7 -19 12 2 6 21 -6 40 -15 25z"/>
<path d="M3443 3810 c-10 -15 -10 -21 0 -26 6 -4 9 -3 4 1 -4 5 0 17 10 27 9
10 12 18 7 18 -5 0 -15 -9 -21 -20z"/>
<path d="M1836 3793 c-6 -14 -5 -15 5 -6 7 7 10 15 7 18 -3 3 -9 -2 -12 -12z"/>
<path d="M6630 3800 c0 -5 5 -10 11 -10 5 0 7 5 4 10 -3 6 -8 10 -11 10 -2 0
-4 -4 -4 -10z"/>
<path d="M1837 3769 c-9 -6 -17 -15 -17 -22 0 -8 3 -7 9 2 5 7 13 11 19 7 6
-3 13 -2 16 3 9 15 -7 21 -27 10z"/>
<path d="M6646 3764 c-3 -8 -2 -12 3 -9 6 3 14 -3 20 -12 5 -10 12 -16 14 -13
3 3 -3 15 -13 27 -15 19 -19 20 -24 7z"/>
<path d="M3435 3761 c-3 -5 -2 -12 3 -15 5 -3 9 1 9 9 0 17 -3 19 -12 6z"/>
<path d="M7250 3765 c0 -7 30 -13 34 -7 3 4 -4 9 -15 9 -10 1 -19 0 -19 -2z"/>
<path d="M4810 3736 c0 -2 7 -7 16 -10 8 -3 12 -2 9 4 -6 10 -25 14 -25 6z"/>
<path d="M6475 3600 c3 -5 8 -10 11 -10 2 0 4 5 4 10 0 6 -5 10 -11 10 -5 0
-7 -4 -4 -10z"/>
<path d="M3399 3573 c-13 -16 -12 -17 4 -4 9 7 17 15 17 17 0 8 -8 3 -21 -13z"/>
<path d="M4835 3560 c-3 -5 -1 -10 4 -10 6 0 11 5 11 10 0 6 -2 10 -4 10 -3 0
-8 -4 -11 -10z"/>
<path d="M3400 3526 c0 -2 8 -10 18 -17 15 -13 16 -12 3 4 -13 16 -21 21 -21
13z"/>
<path d="M7180 3520 c0 -5 7 -7 15 -4 8 4 15 8 15 10 0 2 -7 4 -15 4 -8 0 -15
-4 -15 -10z"/>
<path d="M6510 3460 c0 -5 5 -10 11 -10 5 0 7 5 4 10 -3 6 -8 10 -11 10 -2 0
-4 -4 -4 -10z"/>
<path d="M4813 3365 c0 -8 4 -15 9 -15 4 0 8 4 8 9 0 6 -4 12 -8 15 -5 3 -9
-1 -9 -9z"/>
<path d="M7127 3357 c-3 -8 0 -14 7 -14 7 0 13 6 13 14 0 7 -4 13 -8 13 -4 0
-9 -6 -12 -13z"/>
<path d="M4776 3281 c-2 -3 0 -15 5 -26 7 -18 9 -18 13 3 1 4 4 12 8 18 4 6 0
11 -8 11 -8 0 -16 -3 -18 -6z"/>
<path d="M3470 3231 c0 -6 4 -13 10 -16 6 -3 7 1 4 9 -7 18 -14 21 -14 7z"/>
<path d="M6540 3218 c0 -4 7 -8 15 -8 8 0 15 4 15 8 0 5 -7 9 -15 9 -8 0 -15
-4 -15 -9z"/>
<path d="M6796 3167 c3 -10 9 -15 12 -12 3 3 0 11 -7 18 -10 9 -11 8 -5 -6z"/>
<path d="M4656 3081 c-4 -5 -2 -12 3 -15 5 -4 12 -2 15 3 4 5 2 12 -3 15 -5 4
-12 2 -15 -3z"/>
<path d="M7015 3050 c-4 -6 -11 -7 -17 -4 -7 4 -8 2 -4 -5 6 -9 11 -9 22 0 14
11 18 19 10 19 -3 0 -8 -5 -11 -10z"/>
<path d="M6592 3008 c2 -7 -2 -12 -9 -11 -12 3 -12 -14 0 -34 10 -15 27 -17
27 -3 0 6 -3 9 -7 9 -22 -4 -24 3 -9 20 12 13 14 21 6 26 -6 4 -9 1 -8 -7z"/>
<path d="M3650 3000 c0 -5 5 -10 11 -10 5 0 7 5 4 10 -3 6 -8 10 -11 10 -2 0
-4 -4 -4 -10z"/>
<path d="M4559 2990 c-1 -5 -2 -16 -3 -22 -1 -7 -8 -12 -15 -10 -7 1 -9 -2 -6
-8 10 -16 45 18 38 36 -6 16 -12 18 -14 4z"/>
<path d="M6800 2989 c18 -16 25 -73 8 -63 -7 4 -8 3 -4 -5 6 -9 11 -9 22 0 20
16 11 50 -17 67 -18 11 -21 11 -9 1z"/>
<path d="M1702 2951 c-11 -7 -11 -9 0 -14 9 -3 15 1 15 9 0 8 -1 14 -1 14 -1
0 -7 -4 -14 -9z"/>
<path d="M6565 2940 c-3 -5 -1 -10 4 -10 6 0 11 -5 11 -11 0 -5 -5 -7 -12 -3
-7 4 -8 3 -4 -4 4 -6 13 -9 21 -6 11 5 12 11 4 25 -11 22 -15 23 -24 9z"/>
<path d="M4470 2936 c0 -2 8 -10 18 -17 15 -13 16 -12 3 4 -13 16 -21 21 -21
13z"/>
<path d="M1693 2909 c-2 -23 3 -25 10 -4 4 8 3 16 -1 19 -4 3 -9 -4 -9 -15z"/>
<path d="M3735 2921 c-3 -5 -2 -12 3 -15 5 -3 9 1 9 9 0 17 -3 19 -12 6z"/>
<path d="M1709 2773 c0 -5 -2 -16 -4 -26 -2 -11 0 -16 3 -12 4 4 7 10 7 13 0
4 4 13 8 20 5 7 4 12 -2 12 -6 0 -11 -3 -12 -7z"/>
<path d="M6585 2740 c-3 -6 1 -7 9 -4 18 7 21 14 7 14 -6 0 -13 -4 -16 -10z"/>
<path d="M1759 2421 c11 -7 11 -9 0 -13 -8 -3 -10 -9 -6 -14 9 -10 28 16 21
28 -3 4 -11 8 -17 8 -8 0 -7 -3 2 -9z"/>
<path d="M6488 2283 c7 -3 16 -2 19 1 4 3 -2 6 -13 5 -11 0 -14 -3 -6 -6z"/>
<path d="M6480 2225 c0 -5 5 -17 10 -25 5 -8 10 -10 10 -5 0 6 -5 17 -10 25
-5 8 -10 11 -10 5z"/>
<path d="M2090 1631 c0 -5 5 -13 10 -16 6 -3 10 -2 10 4 0 5 -4 13 -10 16 -5
3 -10 2 -10 -4z"/>
<path d="M2177 1533 c-9 -8 12 -33 27 -33 6 0 3 5 -7 11 -9 6 -15 14 -12 20 7
10 2 12 -8 2z"/>
<path d="M2263 1415 c0 -7 7 -11 15 -7 11 4 13 1 7 -8 -5 -9 -4 -11 3 -6 16
10 15 14 -6 25 -14 7 -19 6 -19 -4z"/>
<path d="M6055 1400 c-3 -5 -1 -10 4 -10 6 0 11 5 11 10 0 6 -2 10 -4 10 -3 0
-8 -4 -11 -10z"/>
<path d="M6049 1363 c-13 -16 -12 -17 4 -4 9 7 17 15 17 17 0 8 -8 3 -21 -13z"/>
<path d="M2518 1173 c6 -2 12 -11 12 -19 0 -8 5 -14 10 -14 7 0 7 6 0 20 -6
11 -16 20 -23 19 -9 0 -9 -2 1 -6z"/>
<path d="M5835 1160 c-3 -5 -1 -10 4 -10 6 0 11 5 11 10 0 6 -2 10 -4 10 -3 0
-8 -4 -11 -10z"/>
<path d="M2550 1128 c-13 -8 -12 -9 2 -5 9 3 19 1 21 -6 2 -7 7 -9 11 -6 13
12 -19 28 -34 17z"/>
<path d="M5795 1101 c-3 -5 -2 -12 3 -15 5 -3 9 1 9 9 0 17 -3 19 -12 6z"/>
<path d="M5675 1021 c-3 -6 -10 -9 -15 -6 -4 3 -13 -2 -19 -9 -9 -11 -9 -14 1
-12 22 3 53 24 46 31 -3 3 -9 1 -13 -4z"/>
<path d="M5545 931 c-6 -11 13 -26 22 -17 4 3 1 6 -6 6 -7 0 -9 5 -6 10 3 6 4
10 1 10 -3 0 -7 -4 -11 -9z"/>
<path d="M5446 865 c-18 -13 -18 -14 2 -12 11 0 18 5 15 11 -4 5 1 7 11 3 10
-4 15 -3 11 3 -8 13 -16 12 -39 -5z"/>
<path d="M3020 821 c0 -6 4 -13 10 -16 6 -3 7 1 4 9 -7 18 -14 21 -14 7z"/>
<path d="M3110 780 c0 -5 5 -10 10 -10 6 0 10 -7 10 -17 0 -9 3 -14 6 -10 8 8
-5 47 -17 47 -5 0 -9 -4 -9 -10z"/>
<path d="M5180 740 c-7 -5 -6 -11 5 -20 13 -11 14 -10 9 5 -5 12 -4 16 4 11 6
-3 13 -3 16 2 6 10 -19 12 -34 2z"/>
<path d="M3340 680 c0 -5 5 -10 11 -10 5 0 7 5 4 10 -3 6 -8 10 -11 10 -2 0
-4 -4 -4 -10z"/>
<path d="M4999 677 c-6 -10 -4 -45 2 -41 4 2 6 11 2 19 -4 11 -1 13 11 9 9 -3
16 -4 16 -1 0 5 -29 18 -31 14z"/>
<path d="M4760 601 c0 -10 19 -25 25 -20 1 2 -3 10 -11 17 -8 7 -14 8 -14 3z"/>
<path d="M4637 583 c-4 -3 -7 -11 -7 -17 0 -6 5 -5 12 2 6 6 9 14 7 17 -3 3
-9 2 -12 -2z"/>
<path d="M3883 545 c0 -8 4 -12 9 -9 5 3 6 10 3 15 -9 13 -12 11 -12 -6z"/>
<path d="M3955 539 c-4 -6 -4 -13 -1 -16 3 -4 6 -1 6 6 0 7 5 9 12 5 7 -4 8
-3 4 4 -9 15 -13 15 -21 1z"/>
<path d="M4176 527 c3 -10 9 -15 12 -12 3 3 0 11 -7 18 -10 9 -11 8 -5 -6z"/>
</g>
</svg>
